<svg width="32" height="32" viewBox="0 0 32 32" fill="none" xmlns="http://www.w3.org/2000/svg">
<circle cx="16" cy="16" r="16" fill=""/>
<g clip-path="url(#clip0_57_483)">
<path d="M25.3585 19.7358L16.3774 13.8868V12.5283C17.5094 12.3396 18.3774 11.3585 18.3774 10.1509C18.3774 8.83019 17.3208 7.77358 16 7.77358C14.6792 7.77358 13.6226 8.83019 13.6226 10.1509C13.6226 10.3774 13.7736 10.5283 14 10.5283C14.2264 10.5283 14.3774 10.3774 14.3774 10.1509C14.3774 9.24528 15.0943 8.5283 16 8.5283C16.9057 8.5283 17.6226 9.24528 17.6226 10.1509C17.6226 11.0566 16.9057 11.7736 16 11.7736C15.7736 11.7736 15.6226 11.9245 15.6226 12.1509V13.8868L6.60377 19.7736C6.22642 20.0377 6 20.4528 6 20.9057C6 21.6226 6.5283 22.1887 7.20755 22.2264H24.7547C25.434 22.1887 26 21.6226 26 20.9057C26 20.4151 25.7358 20 25.3585 19.7358ZM24.6415 21.5094H7.35849C7.01887 21.5094 6.75472 21.2453 6.75472 20.9057C6.75472 20.717 6.86792 20.5283 7.01887 20.4151L16 14.5283L24.9434 20.3396C25.1321 20.4528 25.283 20.6415 25.283 20.8679C25.2453 21.2453 24.9811 21.5094 24.6415 21.5094Z" fill="black"/>
</g>
<defs>
<clipPath id="clip0_57_483">
<rect width="20" height="20" fill="white" transform="translate(6 5)"/>
</clipPath>
</defs>
</svg>
