<svg width="84" height="90" viewBox="0 0 84 90" fill="none" xmlns="http://www.w3.org/2000/svg">
<path d="M42.8952 12.8327C44.8831 10.4033 49.235 7.29552 50.8562 14.2829C50.8948 14.3985 50.9025 14.8034 50.6246 15.4975C50.2772 16.3652 47.9034 20.2406 49.6982 24.1739C53.3285 27.935 56.6565 35.3384 48.8014 46.9363C48.3707 47.5723 48.3139 48.3972 48.6808 49.0719L65.5 80H21.5L36.7631 49.1153C37.1087 48.416 37.0108 47.5795 36.5376 46.9595C27.8173 35.5344 31.9923 29.4938 36.0923 24.1746C37.8871 20.2413 35.5134 16.3659 35.166 15.4983C34.8881 14.8042 34.8958 14.3993 34.9344 14.2836C36.5555 7.29626 40.9074 10.4033 42.8952 12.8327Z" fill="#FF416C"/>
</svg>
