<svg width="84" height="90" viewBox="0 0 84 90" fill="none" xmlns="http://www.w3.org/2000/svg">
<path d="M50.815 14.2719C49.2205 7.30244 44.9401 10.4023 42.985 12.8254C41.0299 10.4023 36.7495 7.30318 35.155 14.2726C35.1171 14.388 35.1095 14.7919 35.3828 15.4842C35.7245 16.3496 38.0593 20.2151 36.294 24.1383C32.261 29.4444 31.1252 35.4701 39.8724 46.8682C40.2665 47.3817 40.0952 48.1342 39.5332 48.4553C34.1637 51.523 24.6762 60.6871 22.25 80H65.25C62.8197 60.5382 53.3583 51.4574 47.4032 48.3994C46.8335 48.1068 46.6261 47.3734 46.9849 46.843C54.8092 35.2741 53.2469 27.8892 49.6761 24.1376C47.9108 20.2144 50.2455 16.3489 50.5872 15.4835C50.8606 14.7911 50.853 14.3873 50.815 14.2719Z" fill="#FF416C"/>
</svg>
