<svg width="84" height="90" viewBox="0 0 84 90" fill="none" xmlns="http://www.w3.org/2000/svg">
<path d="M51.8314 14.5588C50.1853 7.12127 45.7664 10.4293 43.748 13.0152C41.7296 10.4293 37.3108 7.12205 35.6647 14.5596C35.6255 14.6827 35.6177 15.1137 35.8999 15.8525C36.2526 16.7761 38.6629 20.9012 36.8405 25.0879C31.8239 26.4629 31.7493 36.6359 28.3879 70.5261C27.9276 72.0577 27.3826 77.0387 19.5 80H68.5C59.7197 77.5322 59.5 72.2634 59.1904 70.5261C55.0167 33.6859 55.6722 26.4621 50.6556 25.0871C48.8332 20.9004 51.2435 16.7753 51.5962 15.8518C51.8784 15.1129 51.8705 14.6819 51.8314 14.5588Z" fill="#FF416C"/>
</svg>
