<svg width="350" height="400" viewBox="0 0 350 400" fill="none" xmlns="http://www.w3.org/2000/svg">
<g clip-path="url(#clip0_189_5946)">
<path d="M95.0462 0.649838C94.62 0.999838 94.269 1.44984 94.269 1.64984C94.269 1.89984 93.943 1.99984 93.0405 1.99984C92.0376 1.99984 91.6866 2.12484 91.0598 2.69984C90.082 3.59984 89.8062 4.92484 90.3578 6.02484C90.5835 6.47484 90.7339 6.84984 90.7088 6.87484C89.1794 7.69984 88.6028 8.72484 88.8535 10.1248C88.9538 10.5998 89.2797 11.2998 89.5806 11.6498L90.1572 12.2998L87.4996 13.6498C84.2153 15.3248 81.1816 17.6748 79.8528 19.5998C78.9753 20.8748 78.8499 21.1998 78.9001 22.3498C78.9251 23.0498 78.9502 25.1498 78.9502 26.9998C78.9251 28.8498 79.0505 31.5498 79.226 32.9748C79.5018 35.5498 79.5269 35.5748 80.7303 37.0248C81.3822 37.8248 82.0089 38.7998 82.1092 39.2248C82.2847 40.0998 81.9588 41.5248 81.0813 43.6748C80.1536 45.8998 80.279 46.2498 82.2346 46.8498L83.8643 47.3748L83.9395 48.4998C84.0398 49.7748 84.3406 50.2498 85.0426 50.2498C85.4688 50.2498 85.519 50.3748 85.3936 50.8748C85.2933 51.2248 85.3686 51.7498 85.519 52.0248C85.7446 52.4748 85.9452 52.5248 86.7726 52.3998C87.8757 52.2248 87.9259 52.2998 88.5276 54.5748C89.1544 57.0498 91.0598 57.1748 94.3693 54.9248C97.9294 52.4998 98.3055 52.5248 99.6343 55.3248C100.813 57.8248 101.615 61.3748 101.64 64.1248L101.665 66.3498L100.311 67.1748C99.5842 67.5998 98.0047 68.3248 96.8012 68.7498C92.163 70.3998 89.9065 71.3498 88.8034 72.0998C87.4495 72.9998 86.1207 74.8248 85.7196 76.3248C85.5691 76.8998 85.3184 77.4748 85.1429 77.6248C84.6665 78.0248 82.4602 86.8748 82.0842 89.9998C81.7081 92.8498 80.4796 102.275 80.3542 103C79.6271 107.625 79.3514 108.975 79.226 108.825C79.1257 108.7 78.7998 107.9 78.4739 107C77.9724 105.575 76.7439 103.1 74.8134 99.5498C74.0863 98.2498 74.0863 98.2498 74.7131 98.2498C75.3399 98.2498 75.3399 98.1998 74.7131 97.1998C73.961 95.9748 74.0863 94.8498 75.0892 93.2498C76.0168 91.7998 76.1673 90.8498 75.716 89.2248C75.4903 88.4498 75.5655 88.0998 76.092 86.9748C76.8693 85.2748 76.9194 83.2748 76.2174 81.4998C75.9416 80.7998 75.716 79.9248 75.716 79.5498C75.6909 79.1748 75.4903 78.2998 75.2647 77.5998L74.8134 76.3248L76.092 76.8998C77.6716 77.6498 77.9473 77.6498 78.6995 76.8498L79.3012 76.2248L78.6995 75.5748C78.1228 74.9498 78.1228 74.9498 78.6494 75.2248C79.3012 75.5498 80.2289 75.5998 80.2289 75.2748C80.2289 75.1748 79.7525 74.5248 79.1759 73.8498C78.4739 73.0748 78.3234 72.7998 78.7246 73.0748C79.3514 73.4998 80.7303 73.6748 80.7303 73.2998C80.7303 72.9248 77.7468 69.5998 77.12 69.2498C76.1422 68.7498 76.2675 68.2498 77.3456 68.4248C77.9473 68.5248 78.4237 68.4248 78.9001 68.1248L79.577 67.6748L78.6494 67.2248C77.5211 66.6498 77.2704 66.2498 77.9975 66.2498C78.2983 66.2498 78.7747 66.0498 79.0254 65.8248C79.3764 65.4998 79.5519 65.4748 79.7776 65.6998C80.1787 66.0998 81.5577 66.0748 81.9337 65.6998C82.1092 65.5248 82.2346 65.1998 82.2346 64.9498C82.2346 64.6748 82.4101 64.4998 82.6859 64.4998C83.9896 64.4998 84.7167 62.4748 83.764 61.5748C83.413 61.2498 83.3377 60.9998 83.4882 60.7498C83.9645 59.9998 83.764 58.9748 83.0118 58.2748L82.2847 57.5998L82.736 56.7498C82.9867 56.2748 83.1372 55.7998 83.062 55.6998C82.8614 55.3248 81.8084 55.4998 81.1565 55.9998C80.5799 56.4498 80.4545 56.4748 79.6773 56.1248C79.2009 55.9498 78.5992 55.8248 78.3234 55.8998C77.9223 55.9998 77.8471 55.8748 77.822 55.1498C77.822 54.3248 77.1451 52.9998 76.7439 52.9998C76.6436 52.9998 76.3929 53.2998 76.2174 53.6748L75.8915 54.3748L75.716 53.6998C75.4402 52.7748 74.8635 52.0248 74.0362 51.4748C73.1336 50.8748 72.4567 50.8498 72.6071 51.4498C72.6823 51.6748 72.6322 52.1498 72.5068 52.4998L72.2812 53.0998L71.8299 52.4248C71.6042 52.0498 71.3034 51.7498 71.2031 51.7498C70.8772 51.7498 70.4008 53.1998 70.5512 53.6998C70.6766 54.0248 70.5512 54.2498 70.0999 54.4498C68.4452 55.1998 67.9939 58.7498 69.3728 60.1248C69.5734 60.3248 69.6236 60.4998 69.4982 60.4998C69.3478 60.4998 68.8965 60.0998 68.4452 59.5998C67.7683 58.8248 67.668 58.5248 67.7432 57.6498C67.8184 57.0998 67.9438 56.3998 68.0441 56.1248C68.2196 55.6998 68.1694 55.6998 67.7181 56.2248C66.966 57.0498 67.0412 58.4498 67.8435 59.6498L68.4953 60.6248L67.8184 59.9998C65.938 58.2998 66.2138 55.6998 68.3198 55.4498L69.072 55.3748L68.4953 55.0498C67.1665 54.2998 65.6873 55.7248 65.6873 57.7248C65.6873 58.3748 65.4617 59.0498 65.0605 59.6498C64.7095 60.1498 64.4337 60.9248 64.4337 61.3748C64.4337 62.8748 66.0383 64.1248 67.1916 63.4998C67.5426 63.2998 67.693 63.2998 67.693 63.4998C67.693 63.6748 68.1443 64.2248 68.6959 64.7748C69.2475 65.3248 69.6988 65.9498 69.6988 66.1998C69.6988 66.4248 69.1221 67.1748 68.4452 67.8748C67.2418 69.0998 67.1164 69.3498 65.5369 73.9998L63.8822 78.8498L64.0075 81.7498C64.4588 91.0748 67.7933 111.525 70.0247 118.75C70.5261 120.325 71.3284 122.975 71.8299 124.6C73.0082 128.45 73.61 129.125 75.5655 128.925C77.0698 128.775 79.4767 127.675 81.3822 126.25C83.5885 124.6 86.8478 119.675 89.8814 113.425L91.4359 110.225L93.216 112.125C96.4502 115.575 98.6816 120.3 100.386 127.275C100.712 128.7 101.114 130.55 101.264 131.375C101.941 135.2 102.593 139.55 102.492 139.625C102.467 139.65 101.289 140.125 99.9101 140.625C96.4251 141.9 91.837 144.125 88.8786 145.975C82.5355 149.95 75.9416 156.55 70.3005 164.55C63.7067 173.9 59.5448 182.825 56.6365 193.875C55.5835 197.875 52.5999 211.025 51.7976 215.25C51.572 216.425 51.2711 217.825 51.1458 218.375C51.0204 218.925 50.7196 220.375 50.519 221.625C50.2933 222.85 49.8922 224.95 49.6415 226.25C49.3908 227.55 48.8893 230.2 48.5383 232.125C48.1622 234.05 47.5856 237.2 47.2346 239.125C46.8836 241.05 46.2568 244.3 45.8807 246.375C45.4796 248.425 44.928 251.425 44.6271 253C36.9552 293.825 28.6565 322.775 18.1014 345.5C16.923 348.05 15.5441 350.9 15.0426 351.875C14.5161 352.825 13.5133 354.75 12.7862 356.125C9.62715 362.125 4.03617 371.425 2.60709 373.1C2.10566 373.675 1.35351 374.85 0.927292 375.75C0.225287 377.175 0.125 377.6 0.125 379.5C0.125 381.275 0.225287 381.825 0.751791 382.85C2.70738 386.675 9.577 389.825 18.8034 391.1C31.4395 392.85 50.168 391.8 62.6286 388.6C65.9631 387.75 68.9216 386.65 68.6207 386.35C68.5455 386.25 67.7683 386.325 66.8908 386.475C66.0133 386.6 63.4559 386.95 61.1744 387.225C57.3134 387.7 56.2855 387.8 52.6501 388.125C46.1816 388.725 32.317 388.9 24.6952 388.5C19.3549 388.225 18.1515 388.1 15.168 387.6C3.88575 385.7 -0.301218 382.125 1.75466 376.1C2.43159 374.15 3.20881 372.875 5.79119 369.475C11.4072 362.1 18.3771 350.025 23.1658 339.375C31.2389 321.5 38.7102 297.225 44.4015 270.5C45.0784 267.275 45.8055 263.9 46.0061 263C46.8084 259.3 49.14 246.95 51.0455 236.25C51.3965 234.25 51.9481 231.15 52.274 229.375C52.5999 227.575 53.1014 224.725 53.4022 223C54.3299 217.55 57.4137 202.05 58.4416 197.625C60.7984 187.425 63.3557 180.15 66.64 174.25C67.4423 172.8 68.4201 171.05 68.7962 170.375C71.2031 166.05 76.1923 159.225 79.7274 155.425C86.0455 148.625 91.8621 144.55 100.562 140.775C102.618 139.875 103.019 139.625 103.144 139.05C103.495 137.425 103.596 132.425 103.32 129.625C102.292 119.25 99.0827 112.35 93.2661 108.075C86.3213 102.95 85.0677 101.45 85.2181 98.2498C85.2432 97.7748 85.4939 98.0248 86.5219 99.5998C88.678 102.875 91.486 104.625 94.5698 104.6C97.0519 104.575 99.885 102.825 101.59 100.25L101.991 99.6248L102.292 100.375C102.768 101.65 104.598 103.775 105.927 104.65C106.604 105.1 107.908 105.725 108.811 106C111.142 106.775 115.505 106.625 118.588 105.625C122.073 104.5 125.884 102.4 128.742 100.05C129.419 99.4748 130.046 98.9998 130.121 98.9998C130.197 98.9998 130.573 100.1 130.949 101.45L131.651 103.925L131.225 105.65C130.999 106.6 130.272 109.35 129.595 111.75C126.561 122.775 126.235 124.65 126.436 130.225C126.561 134.4 126.887 135.975 128.091 138.6L128.793 140.125L128.667 136.1C128.542 131.625 128.667 130.35 130.121 123C132.152 112.7 132.328 111.55 132.378 108.125L132.403 105.625L134.559 109.875C136.941 114.575 138.721 118.55 139.849 121.75L140.601 123.875L139.498 127.5C138.896 129.5 137.818 133.925 137.116 137.375C136.414 140.8 135.763 143.7 135.687 143.8C135.587 143.9 134.183 143.125 132.553 142.1C130.924 141.05 129.495 140.25 129.394 140.3C129.269 140.35 130.573 141.375 132.278 142.625C134.634 144.325 135.361 145 135.386 145.425C135.386 146 133.431 154.7 133.205 155.075C133.155 155.175 132.453 154.7 131.701 154C130.924 153.325 129.595 152.3 128.768 151.725L127.238 150.7L128.993 152.3C129.946 153.15 131.25 154.325 131.851 154.9L132.929 155.9L132.428 156.9C131.651 158.425 129.821 159.925 127.414 161.025C126.21 161.575 124.831 162.225 124.305 162.475L123.402 162.925L122.951 161.775C122.324 160.15 120.068 155.45 119.942 155.55C119.892 155.6 120.519 157.325 121.346 159.4C122.174 161.45 122.851 163.275 122.851 163.475C122.851 163.65 122.424 164.325 121.873 164.975C121.346 165.6 120.369 166.9 119.667 167.875L118.438 169.625L117.987 174.25C117.761 176.8 117.485 179.3 117.41 179.8C117.235 181 117.661 181.05 118.338 179.925C118.965 178.925 119.29 177.8 119.817 174.65L120.218 172.15L120.544 174.55C120.97 177.925 121.346 179.55 121.672 179.425C122.299 179.225 122.65 177.425 122.525 175.15C122.399 172.575 122.525 172.7 123.477 176C124.305 178.875 124.355 178.95 124.781 178.375C125.232 177.75 125.207 175.225 124.731 173.4C124.33 171.875 124.38 171.25 124.982 170.75C125.258 170.525 125.308 170.725 125.308 172.05C125.283 173.8 126.085 176.125 126.662 175.925C126.987 175.825 127.163 176.3 128.417 180.75C130.497 188.125 133.406 199.675 135.637 209.275C139.097 224.275 140.05 228.425 141.78 236.375C142.407 239.25 143.209 242.8 143.535 244.25C143.861 245.7 144.889 250.2 145.791 254.25C146.694 258.3 147.822 263.375 148.323 265.5C148.8 267.625 149.427 270.325 149.677 271.5C149.953 272.675 150.505 275.025 150.931 276.75C151.357 278.475 152.134 281.775 152.711 284.125C155.82 297.25 161.611 318.575 164.871 329C173.445 356.275 181.192 373.55 190.118 385.375C191.722 387.5 197.364 393.25 197.84 393.25C197.99 393.25 197.288 392.325 196.26 391.175C191.547 385.975 188.137 380.8 183.975 372.475C174.498 353.475 166.199 326.775 154.616 278.125C154.115 276.05 153.263 272.45 152.686 270.125C152.134 267.775 151.508 265.15 151.307 264.25C151.081 263.35 150.028 258.8 148.9 254.125C141.579 223.15 137.718 207.725 133.882 194.25C131.174 184.825 130.899 183.875 128.893 177.725C127.915 174.75 127.113 172.2 127.113 172.05C127.113 171.65 129.119 169.975 131.55 168.35C133.882 166.775 134.509 166 136.088 162.7C136.59 161.625 137.091 160.8 137.192 160.825C137.818 161.025 143.66 169.4 146.719 174.5C150.379 180.575 155.644 190.65 158.954 197.875C165.924 213.1 170.988 225.5 181.869 254C184.627 261.2 188.739 271.85 191.221 278.25C196.511 291.825 204.559 311.325 207.467 317.625C207.994 318.725 208.871 320.7 209.473 322C213.61 331.3 220.129 343.9 224.967 352C233.567 366.35 242.417 376.7 251.067 382.5C254.351 384.675 259.566 386.975 262.124 387.35C263.126 387.5 263.126 387.5 261.873 387.025C259.667 386.225 255.104 383.825 252.947 382.35C250.139 380.45 246.002 376.8 243.42 373.95C242.267 372.675 241.239 371.575 241.164 371.5C240.763 371.15 237.002 366.275 235.372 364C229.581 355.85 223.212 344.65 217.346 332.25C214.111 325.4 213.785 324.65 211.705 319.875C210.677 317.525 209.724 315.4 209.598 315.125C208.119 311.925 201.751 296.25 197.364 285C192.951 273.675 191.547 270.05 189.767 265.5C188.914 263.375 187.987 260.95 187.661 260.125C184.652 252.3 177.081 233.325 174.924 228.25C172.417 222.275 169.835 216.2 169.158 214.725C168.807 213.975 167.503 211.075 166.225 208.25C161.912 198.65 155.268 185.725 150.856 178.375C147.22 172.3 141.679 164.45 138.445 160.775L137.467 159.65L137.944 158.4C139.197 155.1 141.479 150.25 141.805 150.25C142.432 150.25 154.015 162 157.449 166.125C169.584 180.725 177.783 194.05 197.564 231.375C207.718 250.5 213.309 260.275 221.006 272.25C221.307 272.725 222.561 274.7 223.789 276.625C226.948 281.6 236.174 295.4 240.687 301.875C268.742 342.15 296.547 375.175 313.345 388.125C314.649 389.125 315.175 389.775 316.053 391.375C316.98 393.025 317.156 393.575 317.106 394.5C317.03 395.575 316.98 395.65 315.852 396.2C312.969 397.65 305.748 397.125 288.95 394.25C286.619 393.85 282.657 393.175 280.175 392.75C274.86 391.85 275.311 391.925 271.024 391.25C257.134 389.075 248.159 388.25 238.18 388.25C232.338 388.225 229.756 388.35 227.023 388.775C221.633 389.6 217.772 390.95 215.315 392.825C214.663 393.325 213.334 394.125 212.356 394.625C208.746 396.425 206.114 397.15 201.325 397.65C189.491 398.85 173.596 396.45 148.173 389.6C130.021 384.725 124.505 383.55 113.198 382.125C103.947 380.95 91.461 381 83.9896 382.225C78.7747 383.1 72.1809 384.775 69.6486 385.875C68.4703 386.375 68.9717 386.325 72.0806 385.625C74.9638 384.975 79.5519 384.125 81.4824 383.9C88.0763 383.1 96.2496 382.95 102.041 383.475C103.771 383.65 105.802 383.825 106.554 383.9C109.387 384.175 117.686 385.525 122.5 386.525C127.915 387.625 133.456 389 141.278 391.15C158.578 395.925 172.292 398.65 184.577 399.775C189.215 400.2 198.667 399.925 202.077 399.275C207.116 398.325 210.626 396.925 213.384 394.7C217.471 391.4 222.736 390.15 232.414 390.175C240.386 390.2 249.939 391.225 266.887 393.875C269.093 394.225 272.378 394.725 274.158 395.025C275.963 395.3 277.818 395.575 278.295 395.675C278.771 395.75 279.523 395.85 279.924 395.925C280.351 395.975 281.704 396.175 282.933 396.375C293.388 398.025 302.79 399 308.08 399C314.523 399 317.131 398.25 318.184 396.075C319.212 393.975 318.058 391.8 314.022 388.3C298.853 375.1 278.495 350.575 254.326 316.375C247.055 306.075 235.974 289.65 230.283 280.75C228.653 278.2 227.098 275.775 226.848 275.375C226.045 274.125 226.948 275.25 230.333 279.65C244.498 298.15 264.004 318.7 283.184 335.4C300.884 350.825 320.691 365.3 337.589 375.2C342.403 378.025 343.907 379.1 345.788 381.05C349.498 384.9 348.445 387.725 342.478 389.8C339.018 391 331.798 391.35 325.63 390.625C322.997 390.325 318.309 389.375 315.401 388.6C314.197 388.275 315.25 388.9 317.03 389.575C319.111 390.35 324.201 391.65 326.758 392.05C329.992 392.525 337.99 392.6 340.472 392.15C344.559 391.4 346.841 390.375 348.545 388.55C349.849 387.175 350.15 386.2 349.924 384.25C349.498 380.775 346.565 377.8 338.843 373.05C334.129 370.15 330.293 367.65 327.686 365.725C326.658 364.95 323.323 362.6 320.29 360.5C301.862 347.725 281.83 330.775 262.851 311.875C253.173 302.25 247.106 295.825 239.885 287.5C230.157 276.3 220.53 263.775 213.209 252.875C211.93 250.975 209.122 246.1 205.662 239.75C205.236 239 204.559 237.75 204.158 237C203.18 235.225 197.188 224.225 195.809 221.625C195.207 220.525 193.979 218.275 193.051 216.625C192.124 214.975 190.995 212.95 190.544 212.125C174.874 183.8 162.213 166.5 147.446 153.225L145.34 151.35L146.017 149.85C147.22 147.25 150.254 143.025 154.616 137.9C161.887 129.35 162.439 128.675 164.144 126.125C166.876 122.125 167.604 118.975 166.45 116.55C165.372 114.35 163.642 113.825 159.004 114.25C157.174 114.425 155.619 114.5 155.544 114.425C155.343 114.225 157.65 112.025 160.96 109.275C167.152 104.1 169.96 101 170.863 98.3748C172.016 94.9498 170.061 92.9248 164.093 91.3498C156.747 89.4248 155.845 88.8998 157.249 87.1248C158.076 86.0498 161.586 83.5748 163.843 82.4498C169.283 79.7248 172.267 77.6248 173.119 75.9748C173.696 74.8998 173.596 74.9248 172.317 76.1998C170.863 77.6498 168.907 78.7498 164.545 80.5998C159.355 82.7998 155.92 85.0998 154.917 87.0248C154.466 87.9498 154.416 88.1998 154.667 89.0248C155.193 90.7498 156.422 91.4998 161.636 93.2248C168.305 95.4498 168.932 95.8998 167.955 97.7998C167.227 99.2248 163.166 103.225 158.703 106.925C156.697 108.575 154.391 110.65 153.588 111.525L152.084 113.15L149.602 107.025C141.73 87.5248 128.542 56.8998 120.669 39.7498C118.739 35.5498 118.087 34.2998 118.087 34.8248C118.087 35.2748 125.784 53.9248 132.227 69.0998L133.381 71.8248L132.403 70.9248C131.024 69.6998 130.347 69.3748 127.088 68.4998C123.578 67.5498 121.196 66.3248 119.165 64.3998C115.981 61.4498 113.825 56.9248 112.321 49.9998C111.268 45.0748 111.944 38.7998 114 34.6248C114.853 32.9498 115.78 31.9998 116.583 31.9998C116.934 31.9998 117.661 31.7748 118.187 31.4998C118.739 31.2498 119.265 31.0748 119.366 31.1498C119.491 31.2248 119.942 31.7998 120.394 32.4498C121.396 33.9248 128.492 43.7998 132.478 49.2498C135.612 53.5498 140.3 59.7498 145.641 66.7248C147.371 68.9748 149.025 71.0998 149.301 71.4748C149.552 71.8248 150.429 72.9498 151.232 73.9248C152.21 75.1498 152.686 75.9748 152.686 76.4248C152.686 77.3998 153.513 78.6498 154.491 79.1498C155.143 79.4748 155.745 79.5498 157.575 79.4248C160.132 79.2748 162.113 78.6498 167.98 76.1248C172.217 74.3248 172.994 74.0998 173.27 74.5498C173.37 74.7248 173.545 74.7748 173.646 74.6748C173.746 74.5748 173.646 74.2998 173.42 74.0748C173.069 73.6998 172.818 73.6998 171.439 73.9498C170.562 74.1248 168.005 74.8498 165.748 75.5998C158.553 77.9748 155.82 78.2498 154.967 76.7248C154.616 76.0998 154.641 75.9998 155.268 75.1748C156.497 73.5498 160.383 71.3248 168.431 67.6248C178.384 63.0748 181.568 60.2498 180.064 57.3248C179.613 56.4748 172.543 49.3248 167.854 44.9998C158.879 36.6998 141.955 22.6748 130.848 14.2998C123.879 9.07484 121.973 7.77484 119.441 6.57484C117.786 5.77484 117.235 5.62484 115.956 5.67484C115.129 5.67484 114.151 5.82484 113.775 5.97484C113.148 6.19984 113.098 6.17484 112.822 5.37484C112.521 4.44984 111.192 2.49984 110.866 2.49984C110.741 2.49984 110.39 3.14984 110.064 3.92484C109.412 5.57484 109.061 6.07484 109.061 5.39984C109.061 4.54984 108.485 2.99984 108.159 2.99984C107.707 2.99984 106.805 4.22484 106.629 5.04984C106.529 5.57484 106.354 5.74984 105.877 5.74984C104.975 5.74984 103.947 6.37484 102.969 7.49984C101.916 8.74984 101.414 10.3498 101.615 11.9748C101.74 12.9998 101.69 13.2248 101.339 13.3748C100.763 13.5998 99.6594 12.2498 99.1329 10.6998C98.4559 8.64984 99.1078 6.74984 100.788 5.87484C101.715 5.39984 102.392 5.39984 102.793 5.87484C102.969 6.07484 103.194 6.24984 103.27 6.24984C103.47 6.24984 103.395 4.22484 103.169 3.49984C102.919 2.69984 101.59 1.94984 100.386 1.89984C99.6594 1.87484 99.2833 1.77484 99.2833 1.54984C99.2833 1.37484 99.0075 0.949838 98.6565 0.624838C97.8041 -0.250162 96.0992 -0.250162 95.0462 0.649838ZM98.4058 1.02484C98.5813 1.22484 98.481 1.24984 98.0799 1.12484C96.2998 0.599838 94.6451 2.84984 95.5476 4.54984C95.7733 4.94984 95.7482 5.02484 95.4724 4.94984C95.2969 4.89984 94.9961 4.52484 94.7955 4.12484C94.0183 2.52484 95.6479 0.299838 97.4029 0.624838C97.8041 0.699838 98.2554 0.874838 98.4058 1.02484ZM98.5312 1.74984C98.8571 1.97484 98.8069 2.09984 98.2303 2.57484C97.8542 2.87484 97.2776 3.62484 96.9516 4.22484C96.375 5.24984 96.2998 5.27484 96.0491 4.79984C95.0713 2.97484 96.9516 0.699838 98.5312 1.74984ZM94.0183 3.09984C94.0183 3.42484 94.0935 3.87484 94.1687 4.09984C94.2941 4.42484 94.1436 4.49984 93.5419 4.49984C92.539 4.49984 91.5111 5.47484 91.5111 6.42484L91.486 7.12484L91.135 6.49984C90.1322 4.77484 91.3105 2.52484 93.216 2.49984C93.8929 2.49984 94.0183 2.59984 94.0183 3.09984ZM101.69 2.97484C102.392 3.39984 103.27 4.84984 102.994 5.12484C102.944 5.19984 102.242 5.04984 101.49 4.84984C100.161 4.47484 100.01 4.47484 99.1078 4.89984C97.7539 5.57484 96.9516 6.84984 97.1021 8.12484C97.2274 9.04984 97.2024 9.07484 96.8764 8.64984C95.9237 7.34984 96.7761 4.99984 98.5562 4.02484C99.6844 3.37484 100.186 3.37484 101.339 3.94984C101.941 4.27484 102.217 4.32484 102.116 4.09984C101.816 3.32484 99.5842 3.04984 98.1551 3.62484C97.4029 3.92484 97.9796 3.37484 98.9072 2.89984C99.9101 2.37484 100.737 2.39984 101.69 2.97484ZM108.76 6.44984C108.635 6.99984 108.184 6.77484 108.159 6.17484C108.159 5.87484 108.109 5.27484 108.083 4.87484C108.033 4.22484 108.008 4.19984 107.808 4.62484C107.707 4.89984 107.657 5.37484 107.732 5.69984C107.833 6.12484 107.783 6.22484 107.457 6.09984C106.88 5.87484 106.955 5.04984 107.607 4.09984L108.184 3.27484L108.51 4.69984C108.685 5.47484 108.785 6.27484 108.76 6.44984ZM111.694 4.54984C112.145 5.49984 112.321 6.29984 112.321 7.39984C112.321 8.84984 112.245 9.02484 111.443 9.82484C110.967 10.2998 110.566 10.8998 110.566 11.1248C110.566 11.4998 110.44 11.4498 109.914 10.9248C108.936 9.94984 107.758 9.64984 106.379 9.99984C104.824 10.3748 103.972 11.0248 103.295 12.2998L102.743 13.3748L102.919 12.3748C103.019 11.8498 103.245 11.0748 103.445 10.6748C104.022 9.59984 105.727 7.99984 106.379 7.97484C106.805 7.94984 106.83 7.92484 106.479 7.82484C106.228 7.77484 105.551 7.99984 104.949 8.34984C103.721 9.04984 102.543 11.0248 102.543 12.3248C102.543 12.7248 102.442 12.9748 102.292 12.8748C101.841 12.5998 102.041 10.7498 102.643 9.54984C103.596 7.69984 105.125 6.49984 106.554 6.49984C107.281 6.49984 108.058 7.32484 108.184 8.22484C108.284 9.12484 108.56 9.59984 108.56 8.87484C108.56 8.64984 108.936 7.57484 109.412 6.52484C109.889 5.47484 110.39 4.32484 110.54 3.92484C110.691 3.54984 110.866 3.24984 110.942 3.24984C111.017 3.24984 111.368 3.84984 111.694 4.54984ZM94.1436 5.24984C94.2188 5.37484 94.1938 5.49984 94.0433 5.49984C93.8929 5.49984 93.7174 5.77484 93.6171 6.09984C93.4918 6.62484 92.5641 7.49984 92.1379 7.49984C91.8872 7.49984 92.0125 6.34984 92.3385 5.94984C92.6393 5.54984 93.4918 5.02484 93.8177 4.99984C93.918 4.99984 94.0684 5.09984 94.1436 5.24984ZM96.0992 5.84984C96.2747 6.29984 96.0741 6.49984 95.4724 6.49984C95.0211 6.49984 94.8456 5.99984 95.1966 5.67484C95.4724 5.37484 95.9738 5.47484 96.0992 5.84984ZM94.7704 6.39984C94.7704 6.79984 94.3693 6.87484 94.1436 6.49984C93.943 6.17484 94.2439 5.69984 94.5448 5.87484C94.6701 5.97484 94.7704 6.19984 94.7704 6.39984ZM99.1329 6.04984C99.0326 6.22484 98.8069 6.54984 98.6565 6.74984C98.481 6.94984 98.2052 7.44984 98.0548 7.87484L97.779 8.62484L97.9044 7.74984C97.9796 7.27484 98.2804 6.64984 98.5813 6.32484C99.183 5.69984 99.4087 5.57484 99.1329 6.04984ZM117.134 6.74984C118.087 7.02484 121.221 8.97484 123.101 10.4748C130.046 16.0498 146.217 29.8748 151.934 35.1498C152.561 35.6998 154.817 37.7248 156.948 39.6248C163.893 45.7748 172.016 53.3248 175.25 56.6248L177.381 58.7748L176.303 59.7498C174.899 60.9998 171.239 63.1248 165.848 65.8248C158.051 69.6998 154.516 72.0498 153.288 74.1498L152.636 75.2498L150.003 71.4498C141.955 59.8498 129.369 42.5748 122.374 33.5248L119.867 30.2748L120.343 29.0748C120.594 28.4248 120.895 27.6498 120.97 27.3748C121.121 26.9248 121.271 27.0248 122.274 28.1248C125.232 31.3498 132.202 39.4498 138.721 47.2498C140.401 49.2498 141.83 50.9248 141.905 50.9998C141.98 51.0748 143.61 52.9748 145.54 55.2498C150.455 61.0498 155.895 66.4998 156.747 66.4998C157.475 66.4998 157.801 65.9498 157.55 65.1498C156.672 62.3998 143.56 45.4998 134.935 35.9998C131.776 32.5248 125.659 26.4498 124.38 25.5498C122.675 24.3248 122.625 24.5998 124.305 25.9998C125.909 27.3248 132.027 33.8998 135.161 37.6248C141.153 44.7748 144.788 49.3498 149.326 55.3998C151.959 58.8748 154.341 62.2748 155.068 63.4998C155.544 64.2998 154.341 63.0998 151.357 59.7498C149.702 57.8998 148.273 56.3248 148.173 56.2498C148.098 56.1748 146.293 54.0998 144.162 51.6248C137.016 43.2998 132.303 37.8748 132.027 37.6248C131.876 37.4748 129.821 35.2248 127.439 32.6248C125.082 29.9998 122.7 27.4248 122.124 26.8748C121.171 25.9748 121.096 25.7998 121.096 24.5748C121.096 23.3498 121.146 23.2498 121.798 23.1248C122.174 23.0498 122.901 22.8998 123.402 22.7748C124.255 22.5998 124.43 22.6498 126.035 23.9248C126.962 24.6748 128.015 25.5248 128.366 25.8498C133.982 30.7498 150.956 44.1498 155.469 47.1998C158.578 49.2998 158.227 48.6998 154.641 45.7748C147.922 40.2748 146.268 38.9248 145.039 37.8748C137.944 31.8248 124.455 21.1248 121.422 19.1248C120.82 18.7498 120.343 18.2498 120.343 17.9998C120.343 17.7498 120.118 17.2748 119.842 16.9248L119.316 16.2748L120.469 15.2248C121.096 14.6498 121.597 14.0998 121.597 13.9748C121.597 13.8748 121.171 13.6498 120.644 13.4748C119.867 13.2498 119.516 13.2748 118.739 13.5998C117.836 13.9748 117.736 13.9748 117.435 13.5748C117.26 13.3248 117.084 13.0748 117.084 12.9998C117.084 12.6998 115.605 11.9998 115.003 11.9998H114.401L114.903 10.9748C115.354 10.0498 115.48 9.97484 116.106 10.0998C116.984 10.2748 119.591 11.9498 121.998 13.9248C126.411 17.4998 130.497 20.8498 130.623 20.9998C131.25 21.7748 145.691 32.9998 146.694 33.4998C149.051 34.6498 127.138 16.0498 121.296 11.9248C119.19 10.4248 116.407 8.99984 115.931 9.17484C115.73 9.24984 115.53 9.09984 115.429 8.84984C115.354 8.57484 115.179 8.12484 115.053 7.79984L114.828 7.22484L114 7.87484C112.922 8.67484 112.897 8.64984 113.023 7.74984C113.098 7.17484 113.298 6.94984 113.925 6.77484C115.003 6.44984 116.031 6.44984 117.134 6.74984ZM94.5197 7.67484C94.5197 8.09984 95.3972 8.52484 95.8736 8.34984C96.0992 8.27484 96.3499 8.42484 96.5254 8.74984C96.7761 9.22484 96.726 9.39984 96.024 10.0748C95.5978 10.4998 95.0713 11.1748 94.8707 11.5498C94.4445 12.3748 93.9932 12.2498 92.9151 10.9748C91.9624 9.87484 92.0627 8.49984 93.1909 7.19984C93.4918 6.84984 93.6673 6.82484 94.0433 7.07484C94.2941 7.22484 94.5197 7.49984 94.5197 7.67484ZM96.024 7.52484C96.024 8.14984 95.1966 8.07484 95.0713 7.42484C95.0211 7.12484 95.1465 6.99984 95.4975 6.99984C95.8736 6.99984 96.024 7.14984 96.024 7.52484ZM91.7117 7.54984C92.1379 7.97484 92.1128 8.07484 91.2604 8.94984C90.8592 9.37484 90.4581 10.0248 90.3578 10.3998C90.1322 11.2498 89.7561 10.7248 89.7561 9.54984C89.7561 7.87484 90.8843 6.72484 91.7117 7.54984ZM114.727 9.02484C114.627 9.74984 114.326 10.7498 114.05 11.2748C113.8 11.7998 113.574 12.2998 113.574 12.3748C113.574 12.4498 114.025 12.4998 114.602 12.4998C115.379 12.4998 115.78 12.6498 116.332 13.1998C117.36 14.2498 117.51 15.4498 116.808 16.8498C116.182 18.1498 115.931 18.2248 116.357 17.0248C116.508 16.5748 116.583 15.8248 116.508 15.3498C116.357 14.4248 115.455 12.9998 115.028 12.9998C114.853 12.9998 115.003 13.2998 115.354 13.6498C116.207 14.5498 116.207 16.7748 115.354 17.9498C115.053 18.3998 114.602 18.7498 114.351 18.7248C113.85 18.6498 112.596 18.9498 111.995 19.2748C111.694 19.4248 111.343 19.3998 110.816 19.1248C109.838 18.6248 109.864 18.5248 110.891 18.7248C111.894 18.9498 113.273 18.5998 113.975 17.9748C115.68 16.3998 114.928 12.8248 112.797 12.3748C112.396 12.2748 112.07 12.1498 112.07 12.0748C112.07 11.9998 112.521 11.4498 113.073 10.8248C113.624 10.1998 114.076 9.49984 114.076 9.29984C114.076 8.87484 112.17 10.8998 111.944 11.5498C111.844 11.7998 111.593 11.9998 111.368 12.0248C111.142 12.0248 111.393 12.2248 111.944 12.4748C113.499 13.1748 113.95 13.8248 113.95 15.3998C113.95 16.5248 113.85 16.8498 113.248 17.4248C112.697 17.9998 112.346 18.1248 111.343 18.1248C110.039 18.1248 109.086 17.6248 109.563 17.1498C109.688 17.0248 109.813 16.5248 109.813 16.0498C109.813 15.4248 109.613 14.9998 109.036 14.4748C108.334 13.8248 108.083 13.7498 106.554 13.7498C105.601 13.7498 104.749 13.8498 104.674 13.9998C104.573 14.1498 105 14.2498 105.752 14.2498C106.604 14.2498 107.231 14.4248 107.808 14.7998C109.111 15.6998 109.262 16.0998 108.71 17.1248C108.434 17.5998 108.083 17.9998 107.908 17.9998C107.707 17.9998 107.482 18.2998 107.407 18.6748C107.231 19.2998 107.206 19.2998 107.03 18.8748C106.855 18.3748 106.855 18.3748 106.679 18.8748C106.429 19.5248 105.802 20.2498 105.476 20.2498C105.326 20.2498 105.401 20.0498 105.626 19.7998C106.73 18.5748 106.228 16.3248 104.523 14.9748C103.545 14.1998 103.545 14.1748 103.972 13.6748C104.548 13.0498 106.228 12.2748 107.056 12.2498C107.407 12.2498 107.958 12.4248 108.259 12.6498C108.836 13.0498 109.036 12.7498 108.51 12.2998C107.432 11.4498 105.426 11.7998 104.097 13.0498C103.27 13.8498 103.245 13.8498 103.42 13.2498C103.997 11.2998 106.93 10.1498 108.811 11.1248C110.064 11.7748 110.465 13.1498 109.638 14.0498C109.412 14.2998 109.337 14.4998 109.462 14.4998C110.189 14.4748 110.816 13.3998 110.816 12.1498C110.816 11.5998 111.017 11.0498 111.393 10.6498C111.944 10.0248 114.602 7.77484 114.803 7.74984C114.853 7.74984 114.828 8.32484 114.727 9.02484ZM93.4667 12.4498C94.0433 12.7748 94.5197 13.0748 94.5197 13.1248C94.5197 13.1748 94.5949 13.3748 94.6701 13.5998C94.8958 14.1998 93.7425 14.0998 92.7396 13.4248C91.6114 12.6748 90.9094 11.2498 91.1601 10.1998L91.3356 9.37484L91.8872 10.6248C92.2883 11.5748 92.6895 12.0248 93.4667 12.4498ZM98.2303 10.5498C98.6565 11.8998 99.5842 13.1248 100.562 13.6248C101.189 13.9498 101.264 14.0998 101.038 14.5248C100.763 14.9998 100.913 15.9748 101.239 16.0248C102.392 16.2498 103.746 16.1498 104.097 15.8248C104.473 15.4748 104.573 15.5248 105.025 16.2748C105.752 17.4498 105.677 18.0998 104.749 18.9748C103.646 19.9998 102.091 20.0498 100.637 19.0998C99.1329 18.1248 98.4309 16.9748 98.6064 15.7248C98.7066 14.9498 98.6565 14.7748 98.4559 14.9748C98.0297 15.3998 96.9015 15.2998 96.2747 14.7998C95.6228 14.2748 95.2969 12.3248 95.7482 11.5998C95.9738 11.1748 95.9989 11.1998 96.024 11.8248C96.024 13.3998 97.1773 14.4998 98.4559 14.1748C98.7568 14.0998 98.7066 14.0498 98.2303 14.0248C97.3779 13.9998 96.5254 12.9248 96.5254 11.8998C96.5254 11.1248 97.3277 9.49984 97.7038 9.49984C97.8291 9.49984 98.0548 9.97484 98.2303 10.5498ZM102.969 13.8748C103.044 14.0998 103.044 14.3248 102.969 14.3998C102.818 14.5748 101.79 13.9498 101.79 13.6998C101.79 13.3248 102.818 13.4998 102.969 13.8748ZM120.669 13.9748C121.071 14.1248 120.97 14.2748 119.942 15.0748C118.939 15.8748 117.836 16.2748 117.836 15.8748C117.836 15.8248 118.438 15.4498 119.165 15.0998C119.867 14.7248 120.343 14.3748 120.168 14.3248C120.018 14.2748 119.516 14.3998 119.09 14.6248C118.338 14.9998 117.836 14.9498 117.836 14.4998C117.836 14.2498 119.165 13.7998 119.842 13.7998C120.043 13.7748 120.419 13.8748 120.669 13.9748ZM95.0211 14.4748C95.0211 14.6248 94.5448 14.7748 93.9681 14.8248C92.9151 14.8998 92.9402 14.9248 94.1938 14.9498C94.8958 14.9748 95.5476 15.0998 95.6228 15.2248C95.8234 15.5498 94.7453 15.7498 94.2439 15.4748C93.9932 15.3498 93.4416 15.2498 92.9903 15.2498C91.9624 15.2498 92.3134 14.7998 93.567 14.4998C94.7453 14.2248 95.0211 14.2248 95.0211 14.4748ZM102.492 14.7998C102.693 14.9998 102.869 14.9998 103.144 14.7748C103.545 14.4248 103.922 14.7998 103.721 15.3498C103.571 15.7248 101.615 15.8248 101.389 15.4498C100.963 14.7748 101.891 14.1998 102.492 14.7998ZM97.9796 16.1248C97.9294 16.6248 97.7289 16.7748 96.7009 16.9998C96.0491 17.1248 95.2217 17.2498 94.8958 17.2498C94.5698 17.2498 94.2188 17.3498 94.1436 17.4998C93.943 17.8248 94.9208 17.8248 96.5505 17.4748C98.0799 17.1498 98.5061 17.4748 97.8292 18.4248C97.428 18.9748 97.2776 19.0248 95.9488 18.8998C95.1716 18.8248 94.0684 18.5248 93.5419 18.2498C92.4889 17.7248 92.0376 17.2498 92.5641 17.2498C92.7396 17.2498 93.5168 16.9498 94.269 16.5998C95.0211 16.2498 96.1493 15.8748 96.7761 15.7498C97.4029 15.6498 97.9294 15.5498 97.9545 15.5248C98.0047 15.5248 98.0047 15.7748 97.9796 16.1248ZM118.288 16.7998C118.839 17.3498 118.639 18.4998 117.861 19.2748C117.034 20.0748 116.182 20.1998 115.429 19.5998C115.078 19.2998 115.028 19.1748 115.279 19.0748C115.906 18.8248 117.31 17.4748 117.46 16.9748C117.636 16.4248 117.861 16.3748 118.288 16.7998ZM119.591 18.3748C119.591 20.3248 117.385 21.5748 115.48 20.7248C114.602 20.3248 114.903 19.9748 115.856 20.2498C117.51 20.7248 119.24 19.2998 119.04 17.6498C118.965 16.9498 119.015 16.8248 119.265 17.0498C119.441 17.1998 119.591 17.7998 119.591 18.3748ZM109.513 18.3748C109.663 18.7248 110.189 19.1998 110.691 19.4248C111.167 19.6498 111.619 20.0498 111.694 20.2748C111.769 20.5248 112.095 20.7998 112.396 20.8998C112.672 20.9998 113.073 21.2248 113.273 21.3998C113.674 21.8248 114.376 21.8498 114.753 21.4748C114.978 21.2498 115.104 21.3498 115.229 21.8498C115.53 23.0498 113.975 24.5748 112.897 24.1248C112.471 23.9748 112.496 23.9248 112.997 23.7498C113.298 23.6248 113.649 23.2998 113.8 23.0248C114.201 22.2748 114.126 22.0498 113.674 22.6998C112.797 23.9498 109.939 22.9248 108.46 20.7998C107.657 19.6248 107.632 18.8498 108.384 18.2248C109.111 17.6248 109.187 17.6248 109.513 18.3748ZM98.9072 18.7248C98.9824 18.8498 98.6816 19.2498 98.2303 19.5998C97.1522 20.4248 97.4531 20.6748 98.5813 19.8998C99.2332 19.4748 99.5591 19.3748 99.7597 19.5748C99.9101 19.7248 100.035 19.9248 100.035 19.9998C100.035 20.2998 98.832 20.7248 97.5032 20.8998L96.1744 21.0748L97.3027 19.7998C98.4309 18.4748 98.6565 18.3248 98.9072 18.7248ZM114.677 19.3748C114.778 19.6498 114.652 19.7498 114.201 19.7498C113.599 19.7498 113.399 19.4998 113.75 19.1748C114.025 18.8748 114.527 18.9748 114.677 19.3748ZM113.248 19.7248C113.323 19.9998 113.524 20.1498 113.674 20.0998C114.076 19.9498 114.677 20.6498 114.452 20.9998C114.201 21.3998 113.323 21.2998 113.323 20.8748C113.323 20.6748 113.098 20.4998 112.847 20.4998C112.27 20.4998 111.995 19.9248 112.396 19.5248C112.797 19.1248 113.098 19.1998 113.248 19.7248ZM109.713 22.9748C110.365 23.3998 111.067 23.7498 111.268 23.7498C111.869 23.7498 111.418 24.3748 110.741 24.4498C108.861 24.6748 106.404 21.9248 106.93 20.2248C107.081 19.7498 107.181 19.8498 107.808 20.9498C108.259 21.6998 108.986 22.4748 109.713 22.9748ZM121.597 20.5248C122.575 21.1248 123.603 21.9998 123.603 22.2498C123.603 22.5748 119.742 22.6998 119.541 22.3998C119.14 21.7998 119.391 21.6998 120.92 21.8498C121.873 21.9748 122.374 21.9498 122.224 21.7998C121.873 21.4748 120.369 20.9998 119.692 20.9998C119.115 20.9998 119.115 20.9748 119.516 20.4998C120.068 19.8748 120.494 19.8748 121.597 20.5248ZM101.339 21.6248L101.439 22.6248L101.64 21.5498C101.765 20.9248 101.991 20.4998 102.192 20.4998C102.392 20.4998 102.543 20.6248 102.543 20.7498C102.543 21.2248 101.866 22.6248 101.49 22.9498C101.164 23.1998 101.088 23.0998 100.938 22.0998C100.737 20.4748 100.737 20.0998 101.013 20.3748C101.139 20.5248 101.289 21.0748 101.339 21.6248ZM117.535 21.6248C118.789 21.3248 119.265 22.6498 118.313 23.8498C117.586 24.7748 116.207 24.7748 115.981 23.8498C115.881 23.4998 115.881 22.9998 115.956 22.7498C116.031 22.4748 115.981 22.0498 115.831 21.7748C115.58 21.2998 115.605 21.2748 116.257 21.5248C116.633 21.6498 117.21 21.6998 117.535 21.6248ZM115.179 25.0248C114.652 25.5998 113.624 25.6498 112.872 25.0998C112.17 24.6248 112.145 24.1248 112.847 24.4998C113.474 24.8498 114.677 24.5998 115.129 24.0748C115.429 23.6998 115.455 23.6998 115.53 24.0998C115.58 24.3498 115.429 24.7498 115.179 25.0248ZM74.6128 52.9998C75.2898 53.9998 75.365 54.5248 75.0892 55.8998C74.9137 56.6498 74.8635 56.6998 73.9359 56.5748C72.3062 56.3498 70.827 57.2998 70.3757 58.8748C70.2754 59.1498 70.2504 58.8248 70.3005 58.1498C70.3506 57.4248 70.6014 56.6498 70.9273 56.2248C71.2281 55.8248 71.3284 55.5748 71.1529 55.6498C70.3506 55.9748 69.8241 57.1248 69.8241 58.5498C69.8241 59.4998 69.7489 59.8998 69.5734 59.7248C69.1973 59.3498 69.2726 57.2498 69.6737 56.2998C70.0999 55.2748 71.2532 54.6248 71.9552 54.9998C72.231 55.1498 72.4567 55.3748 72.4567 55.4998C72.4567 55.6498 72.582 55.7498 72.7074 55.7498C72.8578 55.7498 72.9581 54.8748 72.9581 53.6248C72.9581 51.5498 72.9832 51.4998 73.4595 51.7498C73.7353 51.8998 74.2618 52.4498 74.6128 52.9998ZM71.3786 53.2498C71.3786 53.6498 71.2783 53.9998 71.1529 53.9998C70.9273 53.9998 70.8771 53.4498 71.1028 52.8998C71.3284 52.3248 71.3786 52.3998 71.3786 53.2498ZM72.4567 54.3498C72.4567 54.6498 72.3313 54.5248 71.9803 53.7498C71.7045 53.1498 71.7045 53.1498 72.0555 53.5998C72.2812 53.8748 72.4567 54.1998 72.4567 54.3498ZM77.0949 54.5748C77.3456 55.8998 77.1701 56.8498 76.6185 56.9498C76.2425 57.0248 76.1923 56.9498 76.3428 56.5998C76.443 56.3248 76.5935 55.7248 76.6436 55.2498C76.769 54.0998 76.3428 54.7498 76.0168 56.1748C75.7912 57.1998 75.7912 57.1998 76.6185 57.3498C77.5462 57.5498 78.4739 58.5248 78.4739 59.3748C78.4739 60.2748 77.5462 61.2498 76.6938 61.2498C76.092 61.2498 75.9667 61.1498 75.9667 60.6498C75.9667 60.3248 75.7912 59.9248 75.5906 59.7498C75.3148 59.5248 75.2897 59.3248 75.4903 58.9498C75.6909 58.5748 75.6909 58.1748 75.4653 57.4998C75.1644 56.6248 75.2145 56.4248 75.8664 55.1498C76.2425 54.3748 76.6687 53.7498 76.769 53.7498C76.8693 53.7498 77.0197 54.1248 77.0949 54.5748ZM82.6107 56.2498C82.5355 56.3748 82.3098 56.4248 82.1343 56.3498C81.9337 56.2748 81.6078 56.4498 81.4072 56.7498C81.2067 57.0498 80.9559 57.1748 80.8807 57.0248C80.7804 56.8998 80.981 56.5998 81.2819 56.3998C81.8836 55.9748 82.8614 55.8498 82.6107 56.2498ZM79.8277 57.0498C80.1787 57.3748 80.5297 57.9498 80.6049 58.3748C80.7554 59.1248 80.7554 59.1248 80.2539 58.2248C79.9781 57.7498 79.4516 57.1998 79.1006 57.0498C78.4237 56.7498 78.4237 56.7498 79.2009 57.5248C79.8027 58.1248 79.9781 58.4998 79.9781 59.2748C79.9781 60.4498 79.0004 61.6498 77.8471 61.8998C77.0949 62.0498 77.0949 62.0498 77.9724 61.5748C79.2009 60.9248 79.6773 59.6248 79.1257 58.4248C78.875 57.9498 78.4237 57.4248 78.0727 57.2498C77.6214 56.9998 77.5462 56.8498 77.7718 56.6998C78.3485 56.3498 79.1759 56.4998 79.8277 57.0498ZM81.7332 57.6248C81.5577 57.8498 81.3571 57.9498 81.2819 57.8748C81.2067 57.8248 81.3069 57.5998 81.4824 57.3748C81.6579 57.1498 81.8585 57.0498 81.9337 57.1248C82.0089 57.1748 81.9087 57.3998 81.7332 57.6248ZM74.5376 57.5998C74.7633 57.7748 74.9638 58.2248 74.9638 58.5998C74.9638 59.1748 74.8635 59.2498 74.0612 59.2498C73.5598 59.2498 72.8327 59.4498 72.4316 59.6748C71.6544 60.1498 71.4287 60.6748 72.1558 60.3498C72.9581 59.9998 74.4624 59.9498 74.8385 60.2498C75.3148 60.6498 75.3148 61.5248 74.8385 62.1498C74.6379 62.3998 74.4624 62.8498 74.4624 63.1248C74.4624 63.4498 74.2869 63.2748 73.986 62.5998C73.5598 61.6498 72.3313 60.7498 71.4789 60.7498C71.0025 60.7498 71.178 60.2998 71.9803 59.3748C72.5319 58.7498 72.9581 58.4998 73.5097 58.4998C73.986 58.4998 74.1866 58.3998 74.0612 58.2248C73.8607 57.8998 72.5569 58.1248 72.0054 58.5748C71.8048 58.7248 71.4287 59.1998 71.1529 59.6248C70.6014 60.5248 70.5512 60.0248 71.0777 58.9748C71.529 58.1498 72.8077 57.2498 73.5849 57.2498C73.8607 57.2748 74.2869 57.4248 74.5376 57.5998ZM81.8585 58.8498C82.36 59.6248 81.9839 60.6748 81.0813 60.9998C80.1536 61.3498 79.8528 61.0498 80.4545 60.3998C80.7303 60.0998 81.0562 59.4998 81.1314 59.0498C81.332 58.0998 81.3571 58.0748 81.8585 58.8498ZM82.9867 59.7998C82.9867 60.7498 81.9839 61.7498 81.0562 61.7248C80.3793 61.6998 80.3793 61.6998 81.1816 61.4748C82.2095 61.1748 82.8112 59.9998 82.4602 59.0248C82.2597 58.4998 82.2597 58.4748 82.6107 58.7498C82.8112 58.9248 82.9867 59.3998 82.9867 59.7998ZM68.7711 61.1748C69.423 61.2748 69.6737 61.4248 69.5985 61.6498C69.4731 61.9998 70.0498 62.7498 70.4509 62.7498C70.5763 62.7498 70.7518 62.6248 70.827 62.4998C70.9022 62.3498 71.2031 62.2498 71.4538 62.2498C71.7045 62.2498 72.0304 62.0748 72.1558 61.8498C72.3564 61.4998 72.4567 61.5498 72.9079 62.1248C73.635 63.0498 73.61 63.3248 72.6572 64.1248C71.9552 64.6998 71.7045 64.7748 70.7769 64.6498C69.4481 64.4748 68.4953 63.8748 68.2948 63.0998C68.1443 62.5248 67.693 62.2498 67.693 62.7498C67.693 63.1498 66.3893 63.0248 65.8879 62.5748C65.6372 62.3498 65.4366 61.9998 65.4366 61.7998C65.4366 61.4998 65.587 61.5498 66.0383 61.9748C66.5648 62.4748 66.7654 62.5248 67.3671 62.2998L68.0691 62.0498L67.2668 62.0248C66.3392 61.9998 65.6873 61.2498 65.6873 60.2248C65.6873 59.2498 65.8628 59.2498 66.8657 60.1748C67.4423 60.6748 68.1694 61.0748 68.7711 61.1748ZM70.9524 60.8498C70.9524 61.0748 70.7769 61.1498 70.4509 61.0748C70.1751 60.9998 70.0247 60.8498 70.0999 60.7248C70.3005 60.3748 70.9524 60.4748 70.9524 60.8498ZM71.7045 61.4998C71.7045 61.8248 70.5011 62.2998 70.1751 62.0998C69.774 61.8498 70.2253 61.4748 70.7267 61.6248C71.0025 61.7248 71.2031 61.6748 71.2031 61.5248C71.2031 61.3748 71.3284 61.2498 71.4538 61.2498C71.6042 61.2498 71.7045 61.3748 71.7045 61.4998ZM79.9029 61.6498C79.8277 61.7248 79.6021 61.7498 79.4266 61.6748C79.226 61.5998 79.3012 61.5248 79.577 61.5248C79.8528 61.4998 80.0032 61.5748 79.9029 61.6498ZM76.3428 61.9998C76.418 62.1248 76.7941 62.2498 77.1701 62.2498C77.5963 62.2498 77.9724 62.4498 78.173 62.7748C78.3485 63.0498 78.6494 63.2498 78.7998 63.1748C78.9753 63.1248 79.3764 63.1748 79.7024 63.2998C80.279 63.4998 80.279 63.5248 79.8528 63.9998C79.2511 64.6498 78.3736 64.6248 76.769 63.8748C75.365 63.2248 74.9889 62.6998 75.4653 62.1248C75.8163 61.6998 76.1171 61.6498 76.3428 61.9998ZM83.438 62.6748C83.5885 64.1498 81.8836 64.3748 81.683 62.9248C81.6329 62.5748 81.8084 62.2748 82.1092 62.0748C82.9115 61.6248 83.3628 61.7998 83.438 62.6748ZM79.226 62.2248C79.226 62.3498 79.4767 62.3998 79.7525 62.3248C80.1286 62.2248 80.2539 62.2748 80.2038 62.4748C80.1286 62.6498 80.0032 62.7748 79.9029 62.7748C79.8027 62.7498 79.4516 62.7498 79.1006 62.7498C78.6995 62.7498 78.4739 62.5998 78.4739 62.3748C78.4739 62.1748 78.6494 61.9998 78.8499 61.9998C79.0505 61.9998 79.226 62.0998 79.226 62.2248ZM80.981 63.4998C80.981 63.9748 80.8055 64.3248 80.4545 64.4998C79.9781 64.7748 79.9531 64.7498 80.2038 64.2748C80.3542 63.9998 80.4796 63.6748 80.4545 63.5748C80.3793 63.0998 80.5047 62.7498 80.7303 62.7498C80.8807 62.7498 80.981 63.0748 80.981 63.4998ZM76.7941 64.7248C77.1952 64.8748 77.8471 64.9998 78.2482 64.9998C79.0505 64.9998 79.226 65.3748 78.5491 65.5998C77.3456 65.9498 74.9638 64.6748 74.9638 63.6998C74.9638 63.5498 75.2145 63.6498 75.5405 63.9498C75.8413 64.2248 76.418 64.5748 76.7941 64.7248ZM81.332 65.1748C80.5047 65.7748 80.0534 65.5248 80.8557 64.8998C81.2819 64.5498 81.658 64.3998 81.7081 64.5498C81.7582 64.6998 81.6078 64.9748 81.332 65.1748ZM74.7131 64.7498C74.7131 64.8748 74.6128 64.9998 74.4624 64.9998C74.337 64.9998 74.2117 64.8748 74.2117 64.7498C74.2117 64.5998 74.337 64.4998 74.4624 64.4998C74.6128 64.4998 74.7131 64.5998 74.7131 64.7498ZM70.7518 65.7998C70.5261 66.0248 70.3757 66.0248 70.1501 65.7998C69.9244 65.5748 69.9746 65.4998 70.4509 65.4998C70.9273 65.4998 70.9774 65.5748 70.7518 65.7998ZM74.0362 67.1748C74.2869 67.5998 73.7102 68.4998 73.2088 68.4998C72.6071 68.4998 72.582 68.2998 73.1085 67.5498C73.4846 66.9998 73.8356 66.8498 74.0362 67.1748ZM74.9638 67.9748C74.9638 68.4748 74.6379 68.8498 74.3872 68.5998C74.2117 68.3998 74.4875 67.4998 74.7382 67.4998C74.8635 67.4998 74.9638 67.7248 74.9638 67.9748ZM75.8413 68.2498C75.7661 68.3748 75.5655 68.4998 75.4402 68.4998C75.2898 68.4998 75.2647 68.3748 75.3399 68.2498C75.4151 68.0998 75.6157 67.9998 75.741 67.9998C75.8915 67.9998 75.9165 68.0998 75.8413 68.2498ZM73.0835 75.2498C73.1587 75.3748 72.933 76.4748 72.582 77.6748C71.3535 81.9248 71.4287 82.9998 73.1587 85.7498C75.4402 89.3248 75.7661 91.2748 74.4624 93.2498C73.5849 94.5748 73.4846 95.7748 74.2117 96.9498C74.8134 97.9248 74.8134 97.9998 74.337 97.9998C74.1365 97.9998 73.635 97.3498 73.2339 96.5248L72.4817 95.0498L73.3843 93.5998C74.9388 91.0998 74.7632 90.0498 71.8048 84.7498C70.9774 83.2248 70.9273 83.0248 71.0276 81.3748C71.178 78.9748 72.1558 74.9998 72.582 74.9998C72.7826 74.9998 72.9832 75.0998 73.0835 75.2498ZM74.2367 76.7998C74.5376 77.3748 74.8385 78.4748 74.8886 79.2748C75.014 80.5248 74.9388 80.8748 74.2117 82.2748C73.7855 83.1498 73.3091 83.9748 73.1837 84.0998C72.7324 84.5998 72.9581 83.4748 73.5849 82.2498C74.312 80.8248 74.3872 79.1748 73.8356 77.6248C73.4595 76.6248 73.3592 75.7498 73.5849 75.7498C73.635 75.7498 73.9359 76.2248 74.2367 76.7998ZM73.6852 78.9998V79.6248L73.3091 78.9248C73.0835 78.5248 73.0082 78.0248 73.0835 77.7998C73.2339 77.4248 73.284 77.4248 73.4595 77.8748C73.5849 78.1498 73.6852 78.6498 73.6852 78.9998ZM70.7267 79.9248C70.3506 81.2748 70.3757 82.8748 70.827 83.9248C71.1279 84.6498 71.1529 84.9748 70.9273 85.6248C70.7518 86.0748 70.7016 86.6248 70.7769 86.8498C70.9524 87.3248 72.2059 87.3998 72.2059 86.9248C72.2059 86.7748 72.4316 86.9998 72.7324 87.4748L73.2589 88.3248L72.7074 89.0498C72.4316 89.4248 71.9302 90.1498 71.5792 90.6248C70.9022 91.6248 70.9524 91.6748 70.2253 89.4998C69.4731 87.1498 69.1472 85.3498 69.1973 83.4248C69.2224 82.0748 69.3478 81.5748 69.8492 80.8248C70.1751 80.3248 70.5261 79.6498 70.6014 79.3248C70.7016 78.9998 70.8019 78.7748 70.8771 78.8498C70.9273 78.8998 70.8771 79.3748 70.7267 79.9248ZM87.1737 82.7248C88.6028 86.7498 89.4803 88.5498 90.9846 90.3998C93.918 94.0248 98.2804 95.5748 103.771 94.9748C111.443 94.1248 120.318 90.0748 132.378 81.8748C134.233 80.6248 135.888 79.4998 136.063 79.4248C136.264 79.2998 136.74 80.0498 137.492 81.6498C138.119 82.9498 139.047 84.6998 139.548 85.5248C140.05 86.3498 140.426 87.0498 140.376 87.0998C140.326 87.1248 138.621 88.5248 136.615 90.1748C127.238 97.9248 122.249 101.125 116.508 103.05C114.552 103.7 113.825 103.8 111.694 103.825C108.334 103.825 106.529 103.125 104.072 100.85C103.119 99.9748 102.217 99.2498 102.041 99.2498C101.891 99.2498 101.264 99.5998 100.637 99.9998C96.5505 102.825 93.6171 102.625 90.4581 99.3248C88.8284 97.5998 87.4746 95.5998 85.168 91.3748C84.2654 89.7248 83.3628 88.1498 83.1622 87.8998C82.9115 87.5498 82.8614 87.1998 83.0118 86.7748C83.1121 86.3998 83.7389 84.4498 84.3908 82.3998C85.2933 79.5248 85.6193 78.7998 85.8198 79.1248C85.9452 79.3748 86.5469 80.9748 87.1737 82.7248ZM73.1587 81.9498L72.6071 83.1248L72.5068 81.8748C72.4567 81.1998 72.5068 80.2248 72.582 79.7498L72.7575 78.8748L73.2339 79.8248L73.7353 80.7498L73.1587 81.9498ZM75.9165 83.6248C75.9918 84.7998 75.8915 85.5998 75.5906 86.3998C75.039 87.8248 74.5627 87.5498 74.8635 85.9498C74.9638 85.3748 75.039 84.4748 75.014 83.9998C74.9137 81.1498 75.741 80.8248 75.9165 83.6248ZM74.4122 85.4248L74.337 86.1248L73.8857 85.4498C73.4345 84.7998 73.4345 84.7498 73.8857 84.0748L74.337 83.3998L74.4122 84.0748C74.4624 84.4498 74.4624 85.0498 74.4122 85.4248ZM71.9552 86.3998C71.9552 86.7748 71.8048 86.9998 71.5792 86.9998C71.2031 86.9998 71.0527 85.9998 71.3535 85.6748C71.6544 85.3998 71.9552 85.7498 71.9552 86.3998ZM143.234 94.2498C144.688 97.4748 146.142 100.75 146.493 101.5C152.009 113.625 151.884 113.325 151.758 114.55C151.633 115.65 151.683 115.8 152.435 116.5C153.488 117.475 154.917 117.85 156.948 117.65C161.787 117.175 163.091 117.175 163.567 117.65C163.943 118.025 164.018 118.375 163.918 119.625C163.692 122.175 162.063 124.85 155.72 133C149.402 141.1 146.217 146.2 145.365 149.625C145.189 150.3 145.039 150.925 145.014 150.975C144.964 151.025 144.337 150.575 143.585 150L142.206 148.925L143.334 146.525C146.518 139.825 148.048 136.375 149.151 133.4C150.304 130.35 151.482 126.1 151.783 123.95C151.884 123.2 150.906 120.025 146.669 107.45C143.811 98.8748 141.153 91.0998 140.802 90.1498C140.15 88.4498 139.899 87.1998 140.376 87.9998C140.501 88.2248 141.805 91.0248 143.234 94.2498ZM73.7102 89.5248C73.7102 89.6498 73.4094 90.2248 73.0584 90.7998C72.6823 91.3748 72.4065 92.0998 72.4065 92.4248C72.4065 92.8998 72.2812 92.9998 71.8549 92.9498C71.0526 92.8248 71.2532 91.7498 72.3564 90.2748C73.2088 89.1498 73.7102 88.8748 73.7102 89.5248ZM73.2339 92.7998C72.8077 93.4748 72.4567 94.1748 72.4567 94.3248C72.4316 94.6248 71.7045 93.7998 71.7045 93.4748C71.7045 93.3748 71.9803 93.2248 72.3313 93.1498C72.7325 93.0498 72.8829 92.8748 72.8077 92.6248C72.7324 92.4248 72.933 91.8498 73.2589 91.3248C73.7855 90.4498 73.8356 90.4248 73.9108 90.9748C73.961 91.2998 73.6852 92.0748 73.2339 92.7998Z" fill="black"/>
<path d="M110.616 6.49982C110.415 7.24982 110.215 8.49982 110.164 9.24982L110.064 10.6248L110.566 8.74982C110.841 7.72482 111.042 6.47482 111.017 5.99982C110.942 5.17482 110.917 5.19982 110.616 6.49982Z" fill="black"/>
<path d="M99.6844 14.8998C99.0827 16.4498 100.361 18.3748 102.167 18.6498C102.843 18.7248 103.32 18.6748 103.646 18.4498C104.047 18.1248 103.997 18.0998 103.194 18.1998C102.693 18.2498 101.941 18.1748 101.54 17.9998C100.512 17.5748 99.6844 16.1998 99.885 15.2248C100.035 14.4498 99.9352 14.2498 99.6844 14.8998Z" fill="black"/>
<path d="M73.61 53.6498C73.7855 54.8998 74.2367 56.3248 74.3872 56.1748C74.5627 55.9748 73.986 53.1748 73.7102 52.8998C73.5598 52.7498 73.5347 53.0248 73.61 53.6498Z" fill="black"/>
<path d="M68.721 62.4498C68.6959 63.0998 68.8463 63.3498 69.5233 63.7498C70.5512 64.3748 71.2532 64.3748 71.9803 63.7248C72.5569 63.2498 72.5569 63.2248 72.0304 63.4748C70.7769 64.0748 69.0971 63.3998 68.8714 62.1748C68.7962 61.7748 68.746 61.8748 68.721 62.4498Z" fill="black"/>
<path d="M101.389 6.72479C100.587 7.19979 99.7847 8.77479 99.7847 9.82479C99.7847 10.7748 100.286 12.1748 100.813 12.7998L101.314 13.3748L100.863 12.4998C100.587 11.9248 100.437 11.0498 100.437 9.99979C100.412 8.12479 100.863 7.27479 102.116 6.64979C102.568 6.44979 102.743 6.24979 102.543 6.24979C102.342 6.24979 101.816 6.47479 101.389 6.72479Z" fill="black"/>
<path d="M133.606 54.8748C138.119 63.0498 149.778 81.6748 153.764 87.0248C156.597 90.8748 148.424 76.6248 141.905 66.3498C140.1 63.5248 133.832 54.0998 133.305 53.4248C132.503 52.4248 132.654 53.1248 133.606 54.8748Z" fill="black"/>
<path d="M107.281 153.6C96.9767 166.7 88.4022 187.85 82.6107 214.475C81.2568 220.675 79.0254 233.225 78.3485 238.25C78.2733 238.875 77.9975 240.9 77.7217 242.75C76.8943 248.6 75.4903 261.325 74.8635 268.625C73.5598 283.725 72.8327 298.275 71.3284 339.5C71.2031 343.05 70.9022 348.275 70.2002 359.25C70.0498 361.525 69.774 364.725 69.5734 366.375C69.3728 368.025 69.1472 370.05 69.072 370.875C68.8213 373.175 67.9438 377.2 67.317 378.925C67.0161 379.8 66.7905 380.5 66.8406 380.5C67.2167 380.5 69.0218 375.825 69.8241 372.775C70.6264 369.6 71.9552 360.225 72.4566 354C72.6071 352.275 72.8829 348.95 73.0834 346.625C73.5347 341.275 74.5376 325.05 75.0892 313.625C75.1644 312.1 75.39 308.35 75.5906 305.25C75.7912 302.15 76.0168 298.325 76.092 296.75C76.2174 294.275 76.7188 286.9 77.0949 281.875C77.1701 281.05 77.3205 278.75 77.471 276.75C77.5963 274.75 77.8972 271.425 78.0727 269.375C78.2733 267.3 78.524 264.775 78.5992 263.75C79.3764 253.525 81.7081 235.15 83.8893 222.125C88.7783 193.075 96.7511 169.95 107.356 154.175C108.184 152.95 108.811 151.925 108.76 151.875C108.71 151.85 108.058 152.6 107.281 153.6Z" fill="black"/>
</g>
<defs>
<clipPath id="clip0_189_5946">
<rect width="350" height="400" fill="white"/>
</clipPath>
</defs>
</svg>
