<svg width="173" height="55" viewBox="0 0 173 55" fill="none" xmlns="http://www.w3.org/2000/svg">
<path d="M94.7813 12.7725C94.7813 14.3741 94.4876 15.9097 93.952 17.3266C93.3991 18.7899 92.5819 20.1286 91.5589 21.2838C91.0871 21.817 90.277 21.8625 89.7497 21.3854C89.2223 20.9083 89.1773 20.0893 89.6492 19.5562C90.457 18.6441 91.1059 17.5771 91.5499 16.4019C91.9751 15.2772 92.2082 14.0537 92.2082 12.7725C92.2082 9.96425 91.0819 7.42135 89.2615 5.58082C87.4409 3.7403 84.9256 2.60146 82.1481 2.60146C79.3705 2.60146 76.8554 3.74016 75.0349 5.58067C73.2347 7.40081 72.1121 9.9031 72.0838 12.6657C72.0866 12.7008 72.0881 12.7365 72.0881 12.7725C72.0881 15.5807 73.2143 18.1236 75.0348 19.9642C76.8554 21.8047 79.3707 22.9435 82.1481 22.9435C83.0597 22.9435 83.9398 22.8223 84.7729 22.5955C84.9493 22.5475 85.1237 22.4948 85.296 22.4375C85.0636 22.2345 84.8385 22.0229 84.6214 21.8034C82.3351 19.4919 80.9208 16.2986 80.9208 12.7725C80.9208 11.1709 81.2144 9.63544 81.7499 8.21853C82.3029 6.75522 83.12 5.4165 84.143 4.26131C84.6148 3.72816 85.4249 3.68264 85.9523 4.15971C86.4796 4.63679 86.5246 5.4558 86.0527 5.98895C85.2449 6.90104 84.5963 7.96792 84.152 9.1432C83.727 10.2679 83.4938 11.4913 83.4938 12.7725C83.4938 15.5807 84.6201 18.1236 86.4406 19.9642C88.2611 21.8047 90.7764 22.9435 93.5539 22.9435C96.3315 22.9435 98.8467 21.8048 100.667 19.9643C102.491 18.1208 103.619 15.5773 103.619 12.7725H103.614C103.614 9.96426 102.488 7.42135 100.667 5.58083C98.8467 3.74031 96.3314 2.60147 93.5539 2.60147C92.6423 2.60147 91.7625 2.72272 90.9294 2.94948C90.753 2.99746 90.5786 3.05021 90.4062 3.10759C90.6386 3.31064 90.8635 3.52208 91.0806 3.74162C93.3669 6.05313 94.7813 9.24639 94.7813 12.7725V12.7725ZM87.8476 24.1698C87.0844 24.5613 86.2772 24.8767 85.4362 25.1056C84.3844 25.3919 83.2814 25.5449 82.1481 25.5449C80.3041 25.5449 78.5521 25.145 76.9724 24.4266L73.3294 30.8064C72.9771 31.4265 72.1938 31.6403 71.5805 31.284C70.9671 30.9277 70.7556 30.1359 71.108 29.5158L74.7549 23.1292C74.2073 22.7289 73.6924 22.2854 73.2156 21.8034C70.9293 19.4918 69.515 16.2986 69.515 12.7725C69.515 12.7309 69.517 12.6898 69.5207 12.6491C69.5535 9.16862 70.9594 6.02277 73.2158 3.74145C75.5021 1.42993 78.6605 3.49636e-06 82.1481 3.49636e-06C84.2014 3.49636e-06 86.1404 0.495866 87.8546 1.37515C88.618 0.983631 89.4252 0.668423 90.2661 0.439353C91.3178 0.153051 92.4203 0 93.5539 0C97.0417 0 100.2 1.43021 102.486 3.74159C104.773 6.0531 106.187 9.24636 106.187 12.7725H106.182C106.182 16.302 104.769 19.4952 102.486 21.8035C100.2 24.115 97.0416 25.5449 93.5539 25.5449C91.5008 25.5449 89.5618 25.0491 87.8476 24.1698L87.8476 24.1698ZM133.054 5.17523C133.295 4.50175 134.031 4.15373 134.697 4.39783C135.363 4.64193 135.707 5.38594 135.466 6.05943L130.311 20.3806C130.069 21.0541 129.333 21.4021 128.667 21.158C128.295 21.0216 128.023 20.7294 127.898 20.3806L127.896 20.3746L127.895 20.3726L123.949 9.40997L119.999 20.3807C119.758 21.0541 119.022 21.4022 118.356 21.1581C117.984 21.0216 117.712 20.7294 117.587 20.3807L117.585 20.3746L117.584 20.3726L112.431 6.0595C112.19 5.38602 112.534 4.64201 113.2 4.3979C113.866 4.1538 114.602 4.50182 114.844 5.1753L118.793 16.146L122.74 5.1834L122.74 5.18138L122.742 5.17531C122.868 4.82657 123.139 4.53434 123.511 4.39791C124.178 4.15381 124.913 4.50182 125.155 5.17531L129.104 16.1458L133.054 5.17531V5.17523ZM170.338 1.34172C170.338 0.623438 170.914 0.0410053 171.625 0.0410053C172.335 0.0410053 172.911 0.623438 172.911 1.34172V12.7901C172.911 12.8323 172.909 12.874 172.905 12.9152C172.872 15.3348 171.891 17.52 170.323 19.1063C168.724 20.7229 166.515 21.7231 164.075 21.7231V21.718C161.633 21.7179 159.424 20.7197 157.828 19.1062C156.229 17.4897 155.24 15.2561 155.24 12.7901H155.245C155.245 10.3206 156.233 8.08739 157.828 6.47378C159.427 4.85727 161.636 3.85702 164.075 3.85702C166.515 3.85702 168.724 4.85741 170.323 6.47392L170.338 6.48938V1.34172L170.338 1.34172ZM170.342 12.8938C170.339 12.8596 170.338 12.825 170.338 12.7901C170.338 11.042 169.637 9.45892 168.504 8.31312C167.37 7.16748 165.805 6.45844 164.076 6.45844C162.346 6.45844 160.781 7.16733 159.648 8.31297C158.511 9.46179 157.808 11.0453 157.808 12.79H157.813C157.813 14.5382 158.514 16.1213 159.647 17.267C160.784 18.4158 162.35 19.1267 164.076 19.1267V19.1216C165.805 19.1216 167.37 18.4128 168.504 17.2671C169.617 16.1411 170.315 14.5975 170.342 12.8938L170.342 12.8938ZM149.631 17.2671C150.133 16.7593 150.948 16.7593 151.45 17.2671C151.953 17.775 151.953 18.5985 151.45 19.1063C150.642 19.9235 149.669 20.5854 148.581 21.0417L148.582 21.0434C147.537 21.4813 146.395 21.7231 145.203 21.7231V21.718C142.76 21.7179 140.552 20.7195 138.956 19.1062C137.357 17.4897 136.367 15.2561 136.367 12.79C136.367 12.7478 136.369 12.7061 136.373 12.6649C136.406 10.2453 137.387 8.06005 138.956 6.47376C140.555 4.85725 142.764 3.857 145.203 3.857C147.642 3.857 149.851 4.85739 151.45 6.4739C153.049 8.09068 154.038 10.3239 154.038 12.79C154.038 13.5083 153.462 14.0908 152.752 14.0908H139.073C139.326 15.317 139.931 16.4136 140.775 17.267C141.911 18.4156 143.477 19.1267 145.203 19.1267V19.1216C146.056 19.1216 146.864 18.9521 147.597 18.6452L147.598 18.647L147.602 18.6452C148.36 18.3278 149.049 17.8561 149.631 17.2671L149.631 17.2671ZM140.775 8.31298C139.929 9.16842 139.323 10.2649 139.069 11.4893H151.333C151.08 10.2629 150.475 9.16669 149.631 8.31312C148.498 7.16748 146.932 6.45844 145.203 6.45844C143.474 6.45844 141.908 7.16733 140.775 8.31297L140.775 8.31298ZM37.2769 17.2671C37.7793 16.7593 38.5938 16.7593 39.0961 17.2671C39.5984 17.775 39.5984 18.5985 39.0961 19.1063C38.2877 19.9235 37.3147 20.5854 36.227 21.0417L36.2277 21.0434C35.1823 21.4813 34.0406 21.7231 32.8487 21.7231V21.718C30.4062 21.7179 28.1974 20.7197 26.6015 19.1062C25.0026 17.4897 24.0133 15.2561 24.0133 12.79C24.0133 10.324 25.0026 8.0904 26.6015 6.4739C28.2006 4.85739 30.4094 3.85714 32.8487 3.85714C35.2881 3.85714 37.4971 4.85739 39.096 6.4739C40.6951 8.0904 41.6843 10.324 41.6843 12.79C41.6843 13.5083 41.1082 14.0908 40.3978 14.0908H26.7187C26.972 15.317 27.5765 16.4136 28.4206 17.267C29.5569 18.4158 31.123 19.1267 32.8487 19.1267V19.1216C33.7014 19.1216 34.5099 18.9521 35.2428 18.6452L35.2435 18.647L35.2478 18.6452C36.0057 18.3278 36.6943 17.8562 37.2769 17.2671L37.2769 17.2671ZM28.4206 8.31312C27.5765 9.16654 26.972 10.263 26.7187 11.4893H38.9789C38.7256 10.263 38.1211 9.16654 37.2768 8.31312C36.1437 7.16748 34.5778 6.45859 32.8487 6.45859C31.1198 6.45859 29.5539 7.16748 28.4206 8.31312H28.4206ZM51.7215 21.7181C49.279 21.7179 47.07 20.7197 45.4742 19.1062C43.875 17.4897 42.8858 15.2561 42.8858 12.7901C42.8858 10.3239 43.8753 8.09044 45.4742 6.47393C47.0733 4.85742 49.2821 3.85717 51.7215 3.85717C54.1608 3.85717 56.3698 4.85742 57.9686 6.47393L57.9839 6.48954V1.34174C57.9839 0.623452 58.56 0.0410201 59.2705 0.0410201C59.9809 0.0410201 60.557 0.623452 60.557 1.34174V12.7901C60.557 12.8323 60.555 12.874 60.5511 12.9152C60.5182 15.3349 59.5373 17.5201 57.9686 19.1064C56.3698 20.7229 54.1608 21.7231 51.7215 21.7231V21.7181L51.7215 21.7181ZM47.2933 17.267C48.4296 18.4158 49.9959 19.1267 51.7215 19.1267V19.1217C53.4506 19.1217 55.0163 18.4128 56.1495 17.2672C57.263 16.1412 57.9606 14.5975 57.9879 12.8939C57.9854 12.8596 57.9839 12.8251 57.9839 12.7901C57.9839 11.0419 57.2828 9.45895 56.1495 8.31316C55.0163 7.16752 53.4506 6.45863 51.7215 6.45863C49.9924 6.45863 48.4266 7.16752 47.2933 8.31316C46.1602 9.4588 45.4589 11.0419 45.4589 12.7901C45.4589 14.5383 46.16 16.1214 47.2933 17.267L47.2933 17.267ZM20.6995 5.1753C20.9409 4.50181 21.6768 4.1538 22.343 4.3979C23.0091 4.642 23.3533 5.38601 23.1119 6.0595L17.9563 20.3807C17.7149 21.0542 16.979 21.4022 16.3128 21.1581C15.9408 21.0217 15.6692 20.7295 15.5439 20.3807L15.5418 20.3746L15.5411 20.3726L11.5946 9.41004L7.64508 20.3807C7.40364 21.0542 6.66774 21.4022 6.0016 21.1581C5.62951 21.0217 5.35791 20.7295 5.23269 20.3807L5.23054 20.3747L5.22983 20.3726L0.0771375 6.05957C-0.164301 5.38609 0.179917 4.64208 0.846052 4.39797C1.51219 4.15387 2.24808 4.50189 2.48953 5.17537L6.43888 16.1461L10.3855 5.18347L10.3862 5.18145L10.3884 5.17538C10.5136 4.82664 10.7852 4.53441 11.1573 4.39798C11.8234 4.15388 12.5593 4.50189 12.8008 5.17538L16.7501 16.1459L20.6995 5.17538L20.6995 5.1753ZM77.1336 15.7373C77.486 16.3574 77.2746 17.1493 76.6612 17.5055C76.0478 17.8618 75.2646 17.648 74.9122 17.0279C73.7569 15.0044 73.5212 12.7012 74.0744 10.614C74.6279 8.52565 75.9726 6.64843 77.9769 5.47865C78.5902 5.1224 79.3735 5.33615 79.7258 5.9563C80.0782 6.57646 79.8668 7.36831 79.2534 7.72455C77.8711 8.53129 76.9418 9.83301 76.5571 11.2846C76.1721 12.7374 76.334 14.3367 77.1336 15.7373Z" fill="url(#paint0_linear)"/>
<path d="M21.3086 44.1074C20.4743 44.1074 19.8208 43.8442 19.3481 43.3179C18.8755 42.7915 18.6392 42.0575 18.6392 41.1157C18.6392 40.1489 18.8844 39.397 19.375 38.8599C19.8656 38.3192 20.5369 38.0488 21.3892 38.0488C21.894 38.0488 22.3774 38.1366 22.8394 38.312L22.6943 38.7847C22.1895 38.6164 21.7508 38.5322 21.3784 38.5322C20.6623 38.5322 20.1198 38.7542 19.751 39.1982C19.3822 39.6387 19.1978 40.2743 19.1978 41.105C19.1978 41.8927 19.3822 42.5104 19.751 42.958C20.1198 43.402 20.6354 43.624 21.2979 43.624C21.8278 43.624 22.3201 43.5291 22.7749 43.3394V43.8335C22.4025 44.0161 21.9137 44.1074 21.3086 44.1074Z" fill="#676D7B"/>
<path d="M28.7435 39.5688C28.7435 39.9377 28.6522 40.2277 28.4696 40.439C28.2869 40.6466 27.9897 40.7917 27.5779 40.874V40.9116C28.047 40.9653 28.3854 41.1014 28.5931 41.3198C28.8043 41.5347 28.91 41.8444 28.91 42.249C28.91 42.8112 28.7238 43.2445 28.3514 43.5488C27.9826 43.8496 27.4419 44 26.7293 44H24.264V38.1616H26.7401C27.4061 38.1616 27.9056 38.2816 28.2386 38.5215C28.5752 38.7614 28.7435 39.1105 28.7435 39.5688ZM28.346 42.2383C28.346 41.5221 27.7964 41.1641 26.6971 41.1641H24.7957V43.4951H26.7723C27.8214 43.4951 28.346 43.0762 28.346 42.2383ZM28.1795 39.6118C28.1795 39.2716 28.0578 39.0299 27.8143 38.8867C27.5708 38.7399 27.2056 38.6665 26.7186 38.6665H24.7957V40.6646H26.6541C27.1984 40.6646 27.5887 40.5804 27.825 40.4121C28.0613 40.2438 28.1795 39.9771 28.1795 39.6118Z" fill="#676D7B"/>
<path d="M34.0944 44L33.9601 43.0762H33.9171C33.6235 43.4521 33.3209 43.7189 33.0094 43.8765C32.7015 44.0304 32.3362 44.1074 31.9137 44.1074C31.3408 44.1074 30.895 43.9606 30.5763 43.667C30.2576 43.3734 30.0983 42.967 30.0983 42.4478C30.0983 41.8784 30.3346 41.4362 30.8073 41.1211C31.2835 40.806 31.971 40.6395 32.8698 40.6216L33.9816 40.5894V40.2026C33.9816 39.6476 33.8688 39.2287 33.6432 38.9458C33.4176 38.6629 33.0542 38.5215 32.5529 38.5215C32.0122 38.5215 31.4518 38.6719 30.8717 38.9727L30.673 38.5107C31.3139 38.21 31.9477 38.0596 32.5744 38.0596C33.2153 38.0596 33.6933 38.2261 34.0084 38.5591C34.3271 38.8921 34.4865 39.4113 34.4865 40.1167V44H34.0944ZM31.9459 43.624C32.569 43.624 33.0595 43.4468 33.4176 43.0923C33.7793 42.7342 33.9601 42.2383 33.9601 41.6045V41.0298L32.9396 41.0728C32.1196 41.1121 31.5342 41.241 31.1832 41.4595C30.8359 41.6743 30.6622 42.0109 30.6622 42.4692C30.6622 42.8345 30.7732 43.1191 30.9953 43.3232C31.2208 43.5238 31.5377 43.624 31.9459 43.624Z" fill="#676D7B"/>
<path d="M41.2016 45.9819H40.6753V44H36.2065V45.9819H35.6801V43.4951H36.0669C36.5538 42.8112 36.9298 42.0181 37.1948 41.1157C37.4598 40.2134 37.5994 39.2287 37.6137 38.1616H40.4228V43.4951H41.2016V45.9819ZM39.8911 43.4951V38.6558H38.0756C37.9897 40.5929 37.5206 42.2061 36.6684 43.4951H39.8911Z" fill="#676D7B"/>
<path d="M44.8553 44.1074C44.0066 44.1074 43.3442 43.846 42.8679 43.3232C42.3953 42.8005 42.159 42.0682 42.159 41.1265C42.159 40.1955 42.3881 39.4507 42.8465 38.8921C43.3048 38.3299 43.9225 38.0488 44.6995 38.0488C45.387 38.0488 45.9295 38.2887 46.3269 38.7686C46.7244 39.2484 46.9231 39.9001 46.9231 40.7236V41.1533H42.7176C42.7247 41.9554 42.9109 42.5677 43.2762 42.9902C43.645 43.4128 44.1713 43.624 44.8553 43.624C45.1883 43.624 45.4801 43.6007 45.7307 43.5542C45.985 43.5076 46.3054 43.4074 46.6922 43.2534V43.7368C46.3627 43.88 46.0584 43.9767 45.7791 44.0269C45.4998 44.0806 45.1918 44.1074 44.8553 44.1074ZM44.6995 38.5215C44.1373 38.5215 43.6861 38.7077 43.346 39.0801C43.0058 39.4489 42.8071 39.9824 42.7498 40.6807H46.3592C46.3592 40.0039 46.2123 39.4757 45.9187 39.0962C45.6251 38.7131 45.2187 38.5215 44.6995 38.5215Z" fill="#676D7B"/>
<path d="M48.2726 40.4927C48.2726 37.9575 48.9869 36.5127 50.4156 36.1582C50.9169 36.0329 51.3967 35.9272 51.8551 35.8413C52.317 35.7518 52.7252 35.673 53.0797 35.605L53.1764 36.0669L52.5318 36.1904C51.4684 36.391 50.7665 36.5449 50.4264 36.6523C49.943 36.792 49.5634 37.1268 49.2877 37.6567C49.0156 38.1867 48.8598 38.9118 48.8204 39.832H48.8526C49.2358 39.3773 49.6082 39.0532 49.9698 38.8599C50.3315 38.6629 50.7039 38.5645 51.087 38.5645C51.8032 38.5645 52.351 38.7954 52.7306 39.2573C53.1101 39.7192 53.2999 40.3763 53.2999 41.2285C53.2999 42.1344 53.0815 42.8416 52.6446 43.3501C52.2078 43.855 51.5937 44.1074 50.8023 44.1074C50.0003 44.1074 49.3772 43.7941 48.9332 43.1675C48.4928 42.5409 48.2726 41.6493 48.2726 40.4927ZM50.8453 43.624C51.4576 43.624 51.9249 43.4199 52.2472 43.0117C52.573 42.6035 52.7359 42.0163 52.7359 41.25C52.7359 40.5231 52.5909 39.9753 52.3009 39.6064C52.0144 39.234 51.5919 39.0479 51.0333 39.0479C50.6179 39.0479 50.2151 39.1785 49.8248 39.4399C49.4381 39.6978 49.0997 40.0558 48.8097 40.5142C48.8097 41.1551 48.8884 41.7173 49.046 42.2007C49.2071 42.6841 49.4399 43.0422 49.7442 43.2749C50.0486 43.5076 50.4156 43.624 50.8453 43.624Z" fill="#676D7B"/>
<path d="M55.4926 38.1616V40.7236H59.1987V38.1616H59.725V44H59.1987V41.1855H55.4926V44H54.9609V38.1616H55.4926Z" fill="#676D7B"/>
<path d="M62.2722 40.6216H64.1306C65.502 40.6216 66.1877 41.1605 66.1877 42.2383C66.1877 42.7933 65.9962 43.2266 65.613 43.5381C65.2299 43.846 64.6802 44 63.9641 44H61.7405V38.1616H62.2722V40.6216ZM62.2722 41.1265V43.4951H64.05C64.5549 43.4951 64.9434 43.3895 65.2156 43.1782C65.4877 42.967 65.6238 42.6501 65.6238 42.2275C65.6238 41.8408 65.5038 41.5615 65.2639 41.3896C65.024 41.2142 64.6086 41.1265 64.0178 41.1265H62.2722ZM67.7346 44H67.2082V38.1616H67.7346V44Z" fill="#676D7B"/>
<path d="M70.2603 38.1616V42.3833L70.2281 43.4844L73.6924 38.1616H74.4014V44H73.8912V39.8052L73.9127 38.6772L70.4483 44H69.7554V38.1616H70.2603ZM72.0811 37.3345C71.5476 37.3345 71.1412 37.2163 70.8619 36.98C70.5826 36.7401 70.4197 36.3551 70.3731 35.8252H70.8458C70.8995 36.2191 71.0212 36.4984 71.211 36.6631C71.4008 36.8242 71.6944 36.9048 72.0919 36.9048C72.4857 36.9048 72.7776 36.8206 72.9673 36.6523C73.1607 36.484 73.2789 36.2083 73.3218 35.8252H73.7945C73.7193 36.8314 73.1482 37.3345 72.0811 37.3345Z" fill="#676D7B"/>
<path d="M84.1579 41.0728C84.1579 42.0252 83.927 42.77 83.465 43.3071C83.0031 43.8407 82.3658 44.1074 81.5529 44.1074C81.0409 44.1074 80.5897 43.9839 80.1994 43.7368C79.8091 43.4897 79.5101 43.1353 79.3024 42.6733C79.0948 42.2114 78.9909 41.6779 78.9909 41.0728C78.9909 40.1203 79.2219 39.3791 79.6838 38.8491C80.1457 38.3156 80.7795 38.0488 81.5852 38.0488C82.3872 38.0488 83.0157 38.3192 83.4704 38.8599C83.9287 39.397 84.1579 40.1346 84.1579 41.0728ZM79.5495 41.0728C79.5495 41.8748 79.725 42.5015 80.0759 42.9526C80.4304 43.4002 80.9299 43.624 81.5744 43.624C82.2189 43.624 82.7167 43.4002 83.0676 42.9526C83.4221 42.5015 83.5993 41.8748 83.5993 41.0728C83.5993 40.2671 83.4203 39.6423 83.0622 39.1982C82.7077 38.7542 82.2082 38.5322 81.5637 38.5322C80.9191 38.5322 80.4214 38.7542 80.0705 39.1982C79.7232 39.6387 79.5495 40.2635 79.5495 41.0728Z" fill="#676D7B"/>
<path d="M86.3614 38.1616V40.7236H90.0674V38.1616H90.5938V44H90.0674V41.1855H86.3614V44H85.8296V38.1616H86.3614Z" fill="#676D7B"/>
<path d="M96.6483 44H96.1219V38.6558H94.054C93.9466 40.0701 93.8141 41.1497 93.6566 41.8945C93.5026 42.6357 93.3021 43.1818 93.055 43.5327C92.8115 43.88 92.4946 44.0537 92.1043 44.0537C91.9647 44.0537 91.8429 44.0394 91.7391 44.0107V43.5273C91.8071 43.5488 91.9038 43.5596 92.0291 43.5596C92.4338 43.5596 92.7596 43.1335 93.0067 42.2812C93.2573 41.4255 93.4471 40.0522 93.576 38.1616H96.6483V44Z" fill="#676D7B"/>
<path d="M102.203 44L102.069 43.0762H102.026C101.732 43.4521 101.43 43.7189 101.118 43.8765C100.81 44.0304 100.445 44.1074 100.023 44.1074C99.4497 44.1074 99.0039 43.9606 98.6852 43.667C98.3665 43.3734 98.2072 42.967 98.2072 42.4478C98.2072 41.8784 98.4435 41.4362 98.9162 41.1211C99.3924 40.806 100.08 40.6395 100.979 40.6216L102.09 40.5894V40.2026C102.09 39.6476 101.978 39.2287 101.752 38.9458C101.527 38.6629 101.163 38.5215 100.662 38.5215C100.121 38.5215 99.5607 38.6719 98.9806 38.9727L98.7819 38.5107C99.4228 38.21 100.057 38.0596 100.683 38.0596C101.324 38.0596 101.802 38.2261 102.117 38.5591C102.436 38.8921 102.595 39.4113 102.595 40.1167V44H102.203ZM100.055 43.624C100.678 43.624 101.168 43.4468 101.527 43.0923C101.888 42.7342 102.069 42.2383 102.069 41.6045V41.0298L101.048 41.0728C100.229 41.1121 99.6431 41.241 99.2921 41.4595C98.9448 41.6743 98.7711 42.0109 98.7711 42.4692C98.7711 42.8345 98.8821 43.1191 99.1042 43.3232C99.3297 43.5238 99.6466 43.624 100.055 43.624Z" fill="#676D7B"/>
<path d="M105.051 38.1616V42.3833L105.019 43.4844L108.483 38.1616H109.192V44H108.682V39.8052L108.704 38.6772L105.239 44H104.546V38.1616H105.051ZM106.872 37.3345C106.339 37.3345 105.932 37.2163 105.653 36.98C105.374 36.7401 105.211 36.3551 105.164 35.8252H105.637C105.69 36.2191 105.812 36.4984 106.002 36.6631C106.192 36.8242 106.485 36.9048 106.883 36.9048C107.277 36.9048 107.568 36.8206 107.758 36.6523C107.952 36.484 108.07 36.2083 108.113 35.8252H108.585C108.51 36.8314 107.939 37.3345 106.872 37.3345Z" fill="#676D7B"/>
<path d="M111.74 38.1616V40.7236H115.446V38.1616H115.972V44H115.446V41.1855H111.74V44H111.208V38.1616H111.74Z" fill="#676D7B"/>
<path d="M117.504 41.25V40.8096H120.055V41.25H117.504Z" fill="#676D7B"/>
<path d="M123.918 44.1074C123.084 44.1074 122.431 43.8442 121.958 43.3179C121.485 42.7915 121.249 42.0575 121.249 41.1157C121.249 40.1489 121.494 39.397 121.985 38.8599C122.475 38.3192 123.147 38.0488 123.999 38.0488C124.504 38.0488 124.987 38.1366 125.449 38.312L125.304 38.7847C124.799 38.6164 124.361 38.5322 123.988 38.5322C123.272 38.5322 122.73 38.7542 122.361 39.1982C121.992 39.6387 121.808 40.2743 121.808 41.105C121.808 41.8927 121.992 42.5104 122.361 42.958C122.73 43.402 123.245 43.624 123.908 43.624C124.438 43.624 124.93 43.5291 125.385 43.3394V43.8335C125.012 44.0161 124.524 44.1074 123.918 44.1074Z" fill="#676D7B"/>
<path d="M129.232 44.1074C128.383 44.1074 127.721 43.846 127.244 43.3232C126.772 42.8005 126.535 42.0682 126.535 41.1265C126.535 40.1955 126.765 39.4507 127.223 38.8921C127.681 38.3299 128.299 38.0488 129.076 38.0488C129.763 38.0488 130.306 38.2887 130.703 38.7686C131.101 39.2484 131.3 39.9001 131.3 40.7236V41.1533H127.094C127.101 41.9554 127.287 42.5677 127.653 42.9902C128.021 43.4128 128.548 43.624 129.232 43.624C129.565 43.624 129.857 43.6007 130.107 43.5542C130.361 43.5076 130.682 43.4074 131.069 43.2534V43.7368C130.739 43.88 130.435 43.9767 130.156 44.0269C129.876 44.0806 129.568 44.1074 129.232 44.1074ZM129.076 38.5215C128.514 38.5215 128.063 38.7077 127.722 39.0801C127.382 39.4489 127.184 39.9824 127.126 40.6807H130.736C130.736 40.0039 130.589 39.4757 130.295 39.0962C130.002 38.7131 129.595 38.5215 129.076 38.5215Z" fill="#676D7B"/>
<path d="M135.463 44.1074C134.565 44.1074 133.909 43.7708 133.498 43.0977H133.46L133.476 43.5488C133.49 43.8138 133.498 44.1038 133.498 44.4189V46.6426H132.966V38.1616H133.417L133.519 38.9941H133.551C133.952 38.3639 134.593 38.0488 135.474 38.0488C136.262 38.0488 136.862 38.3084 137.274 38.8276C137.689 39.3433 137.897 40.0952 137.897 41.0835C137.897 42.0431 137.678 42.7879 137.241 43.3179C136.808 43.8442 136.215 44.1074 135.463 44.1074ZM135.453 43.6348C136.051 43.6348 136.513 43.4128 136.838 42.9688C137.168 42.5247 137.333 41.9035 137.333 41.105C137.333 39.3898 136.713 38.5322 135.474 38.5322C134.794 38.5322 134.294 38.7202 133.976 39.0962C133.657 39.4686 133.498 40.0773 133.498 40.9224V41.0942C133.498 42.0073 133.65 42.659 133.954 43.0493C134.262 43.4396 134.762 43.6348 135.453 43.6348Z" fill="#676D7B"/>
<path d="M144.053 39.5688C144.053 39.9377 143.962 40.2277 143.779 40.439C143.597 40.6466 143.299 40.7917 142.888 40.874V40.9116C143.357 40.9653 143.695 41.1014 143.903 41.3198C144.114 41.5347 144.22 41.8444 144.22 42.249C144.22 42.8112 144.033 43.2445 143.661 43.5488C143.292 43.8496 142.752 44 142.039 44H139.574V38.1616H142.05C142.716 38.1616 143.215 38.2816 143.548 38.5215C143.885 38.7614 144.053 39.1105 144.053 39.5688ZM143.656 42.2383C143.656 41.5221 143.106 41.1641 142.007 41.1641H140.105V43.4951H142.082C143.131 43.4951 143.656 43.0762 143.656 42.2383ZM143.489 39.6118C143.489 39.2716 143.367 39.0299 143.124 38.8867C142.88 38.7399 142.515 38.6665 142.028 38.6665H140.105V40.6646H141.964C142.508 40.6646 142.898 40.5804 143.135 40.4121C143.371 40.2438 143.489 39.9771 143.489 39.6118Z" fill="#676D7B"/>
<path d="M146.364 38.1616V42.3833L146.332 43.4844L149.796 38.1616H150.505V44H149.995V39.8052L150.016 38.6772L146.552 44H145.859V38.1616H146.364Z" fill="#676D7B"/>
<path d="M154.852 44.1074C154.017 44.1074 153.364 43.8442 152.891 43.3179C152.419 42.7915 152.182 42.0575 152.182 41.1157C152.182 40.1489 152.427 39.397 152.918 38.8599C153.409 38.3192 154.08 38.0488 154.932 38.0488C155.437 38.0488 155.92 38.1366 156.382 38.312L156.237 38.7847C155.732 38.6164 155.294 38.5322 154.921 38.5322C154.205 38.5322 153.663 38.7542 153.294 39.1982C152.925 39.6387 152.741 40.2743 152.741 41.105C152.741 41.8927 152.925 42.5104 153.294 42.958C153.663 43.402 154.178 43.624 154.841 43.624C155.371 43.624 155.863 43.5291 156.318 43.3394V43.8335C155.946 44.0161 155.457 44.1074 154.852 44.1074Z" fill="#676D7B"/>
<defs>
<linearGradient id="paint0_linear" x1="-0.164285" y1="15.82" x2="172.911" y2="15.82" gradientUnits="userSpaceOnUse">
<stop stop-color="#FF375F"/>
<stop offset="1" stop-color="#FD9478"/>
</linearGradient>
</defs>
</svg>
